<?xml version="1.0" encoding="UTF-8" standalone="no"?>
<!DOCTYPE svg PUBLIC "-//W3C//DTD SVG 1.1//EN" "http://www.w3.org/Graphics/SVG/1.1/DTD/svg11.dtd">
<svg width="100%" height="100%" viewBox="0 0 596 135" version="1.1" xmlns="http://www.w3.org/2000/svg" xmlns:xlink="http://www.w3.org/1999/xlink" xml:space="preserve" xmlns:serif="http://www.serif.com/" style="fill-rule:evenodd;clip-rule:evenodd;stroke-linejoin:round;stroke-miterlimit:2;">
    <g transform="matrix(1.32813,0,0,1.32813,-286.219,-514.915)">
        <g id="Warstwa-1" serif:id="Warstwa 1">
            <g transform="matrix(1,0,0,1,243.973,446.851)">
                <path d="M0,-14.928L-2.143,-6.904L2.754,-6.904L0.544,-14.928C0.51,-15.031 0.476,-15.133 0.272,-15.133C0.068,-15.133 0.034,-15.031 0,-14.928M6.869,-16.866L12.99,5.544C13.059,5.918 12.854,6.088 12.548,6.088L6.597,6.088C6.257,6.088 6.223,5.918 6.121,5.544L4.318,-1.122L-3.707,-1.122L-5.51,5.544C-5.611,5.918 -5.646,6.088 -5.985,6.088L-11.937,6.088C-12.243,6.088 -12.447,5.918 -12.379,5.544L-6.257,-16.866C-5.203,-20.743 -4.387,-21.016 0.306,-21.016C4.999,-21.016 5.815,-20.71 6.869,-16.866" style="fill:rgb(13,13,13);fill-rule:nonzero;"/>
            </g>
            <g transform="matrix(1,0,0,1,275.733,446.715)">
                <path d="M0,-14.656L0,-8.468L3.367,-8.468C5.917,-8.468 6.666,-9.249 6.666,-11.494C6.666,-13.705 5.917,-14.656 3.367,-14.656L0,-14.656ZM13.909,-11.731C13.909,-6.869 12.651,-4.591 9.046,-3.672L14.827,5.543C15.1,5.918 14.93,6.224 14.419,6.224L8.162,6.224C7.38,6.224 7.142,5.986 6.801,5.476L1.292,-3.23L0,-3.23L0,5.68C0,6.121 -0.102,6.224 -0.51,6.224L-6.631,6.224C-7.039,6.224 -7.142,6.121 -7.142,5.68L-7.142,-19.962C-7.142,-20.267 -7.039,-20.37 -6.631,-20.404C-3.027,-20.743 0.544,-20.88 4.149,-20.88C11.427,-20.88 13.909,-18.363 13.909,-11.731" style="fill:rgb(13,13,13);fill-rule:nonzero;"/>
            </g>
            <g transform="matrix(1,0,0,1,319.903,452.395)">
                <path d="M0,-25.846C0.646,-25.642 0.986,-25.438 0.986,-24.69L0.986,-20.88C0.986,-20.507 0.816,-20.336 0.476,-20.336L-7.04,-20.336C-10.61,-20.336 -11.257,-18.534 -11.257,-12.957C-11.257,-7.38 -10.61,-5.509 -7.04,-5.509L0.476,-5.509C0.816,-5.509 0.986,-5.305 0.986,-4.966L0.986,-1.157C0.986,-0.409 0.646,-0.17 0,0C-1.667,0.476 -3.333,0.714 -7.04,0.714C-16.052,0.714 -18.5,-2.414 -18.5,-12.957C-18.5,-23.499 -16.052,-26.56 -7.04,-26.56C-3.333,-26.56 -1.667,-26.287 0,-25.846" style="fill:rgb(13,13,13);fill-rule:nonzero;"/>
            </g>
            <g transform="matrix(1,0,0,1,356.495,452.939)">
                <path d="M0,-26.899C0.34,-26.899 0.51,-26.695 0.51,-26.321L0.51,-0.578C0.51,-0.17 0.34,0 0,0L-6.122,0C-6.461,0 -6.631,-0.17 -6.631,-0.578L-6.631,-10.133L-15.439,-10.133L-15.439,-0.578C-15.439,-0.17 -15.61,0 -15.95,0L-22.071,0C-22.411,0 -22.581,-0.17 -22.581,-0.578L-22.581,-26.321C-22.581,-26.695 -22.411,-26.899 -22.071,-26.899L-15.95,-26.899C-15.61,-26.899 -15.439,-26.695 -15.439,-26.321L-15.439,-16.424L-6.631,-16.424L-6.631,-26.321C-6.631,-26.695 -6.461,-26.899 -6.122,-26.899L0,-26.899Z" style="fill:rgb(13,13,13);fill-rule:nonzero;"/>
            </g>
            <g transform="matrix(1,0,0,1,376.651,446.885)">
                <path d="M0,-14.826L0,0.001L3.707,0.001C6.836,0.001 7.924,-2.21 7.924,-7.345C7.924,-12.548 6.836,-14.826 3.707,-14.826L0,-14.826ZM16.015,-7.345C16.015,2.211 12.852,6.224 4.554,6.224C0.949,6.224 -2.18,6.088 -5.784,5.748C-6.192,5.714 -6.295,5.68 -6.295,5.373L-6.295,-20.132C-6.295,-20.437 -6.192,-20.54 -5.784,-20.574C-2.18,-20.913 0.949,-21.05 4.554,-21.05C12.852,-21.05 16.015,-17.003 16.015,-7.345" style="fill:rgb(13,13,13);fill-rule:nonzero;"/>
            </g>
            <g transform="matrix(1,0,0,1,422.726,452.939)">
                <path d="M0,-26.899C0.34,-26.899 0.543,-26.729 0.543,-26.389L0.543,-21.186C0.543,-20.845 0.34,-20.676 0,-20.676L-11.495,-20.676L-11.495,-16.391L-0.919,-16.391C-0.579,-16.391 -0.375,-16.221 -0.375,-15.88L-0.375,-11.017C-0.375,-10.678 -0.579,-10.508 -0.919,-10.508L-11.495,-10.508L-11.495,-6.223L0,-6.223C0.34,-6.223 0.543,-6.052 0.543,-5.712L0.543,-0.509C0.543,-0.17 0.34,0 0,0L-18.126,0C-18.467,0 -18.637,-0.17 -18.637,-0.544L-18.637,-26.355C-18.637,-26.695 -18.467,-26.899 -18.126,-26.899L0,-26.899Z" style="fill:rgb(13,13,13);fill-rule:nonzero;"/>
            </g>
            <g transform="matrix(1,0,0,1,453.33,452.225)">
                <path d="M0,-25.506C0.545,-25.336 0.749,-25.131 0.749,-24.758L0.749,-20.915C0.749,-20.37 0.511,-20.166 -0.034,-20.166L-8.468,-20.166C-9.691,-20.166 -10.405,-19.656 -10.405,-18.772L-10.405,-18.399C-10.405,-17.65 -9.861,-17.004 -8.91,-16.663L-3.503,-14.725C-0.102,-13.501 1.973,-12.209 1.973,-7.04L1.973,-6.224C1.973,-1.326 -1.7,0.884 -8.604,0.884C-10.916,0.884 -13.603,0.611 -17.105,-0.068C-17.649,-0.204 -17.854,-0.443 -17.854,-1.02L-17.854,-4.558C-17.854,-5.102 -17.615,-5.339 -17.037,-5.339L-7.073,-5.339C-5.917,-5.339 -5.237,-5.713 -5.237,-6.598L-5.237,-6.835C-5.237,-8.027 -6.087,-8.332 -7.549,-8.842L-12.786,-10.645C-15.779,-11.664 -17.615,-13.364 -17.615,-18.602L-17.615,-19.317C-17.615,-24.214 -14.69,-26.39 -7.549,-26.39C-4.692,-26.39 -2.517,-26.117 0,-25.506" style="fill:rgb(13,13,13);fill-rule:nonzero;"/>
            </g>
            <g transform="matrix(1,0,0,1,487.458,452.939)">
                <path d="M0,-26.899C0.612,-26.899 0.545,-26.628 0.307,-26.253L-7.345,-14.588L1.396,-0.918C1.667,-0.475 1.734,0 0.816,0L-5.984,0C-6.325,0 -6.597,-0.135 -6.733,-0.374L-14.623,-12.991L-14.623,-0.544C-14.623,-0.17 -14.793,0 -15.133,0L-21.254,0C-21.594,0 -21.765,-0.17 -21.765,-0.544L-21.765,-26.355C-21.765,-26.695 -21.594,-26.899 -21.254,-26.899L-15.133,-26.899C-14.793,-26.899 -14.623,-26.695 -14.623,-26.355L-14.623,-15.438L-7.447,-26.559C-7.277,-26.763 -7.039,-26.899 -6.733,-26.899L0,-26.899Z" style="fill:rgb(13,13,13);fill-rule:nonzero;"/>
            </g>
        </g>
    </g>
</svg>
