<?xml version="1.0" encoding="UTF-8" standalone="no"?>
<!DOCTYPE svg PUBLIC "-//W3C//DTD SVG 1.1//EN" "http://www.w3.org/Graphics/SVG/1.1/DTD/svg11.dtd">
<svg width="100%" height="100%" viewBox="0 0 523 171" version="1.1" xmlns="http://www.w3.org/2000/svg" xmlns:xlink="http://www.w3.org/1999/xlink" xml:space="preserve" xmlns:serif="http://www.serif.com/" style="fill-rule:evenodd;clip-rule:evenodd;stroke-linejoin:round;stroke-miterlimit:2;">
    <g transform="matrix(1,0,0,1,-2288,-2880)">
        <g id="poziome_full_biale" transform="matrix(1,0,0,1,-3.78357,1291)">
            <rect x="2292" y="1589.2" width="521.957" height="170.055" style="fill:none;"/>
            <g transform="matrix(1.55592,0,0,1.55592,2140.41,1945.43)">
                <g transform="matrix(2.46481,0,0,2.46481,-1044.14,-1391.68)">
                    <path d="M513.676,485.727C513.404,485.711 513.176,485.603 512.992,485.403C512.808,485.203 512.724,484.967 512.74,484.695C512.756,484.423 512.864,484.195 513.064,484.011C513.264,483.827 513.492,483.743 513.748,483.759L517.516,483.759C517.548,483.743 517.612,483.731 517.708,483.723C517.804,483.715 517.868,483.711 517.9,483.711C518.124,483.711 518.3,483.719 518.428,483.735C518.444,483.735 518.48,483.743 518.536,483.759C518.592,483.775 518.644,483.791 518.692,483.807L518.788,483.855C519.028,483.951 519.196,484.119 519.292,484.359C519.388,484.599 519.396,484.839 519.316,485.079C519.284,485.175 519.26,485.239 519.244,485.271C518.652,486.631 517.756,488.511 516.556,490.911C515.788,492.447 515.132,493.991 514.588,495.543L518.212,495.543C518.484,495.543 518.716,495.639 518.908,495.831C519.1,496.023 519.196,496.255 519.196,496.527C519.196,496.799 519.1,497.031 518.908,497.223C518.716,497.415 518.484,497.511 518.212,497.511C515.508,497.511 513.892,497.535 513.364,497.583C513.092,497.615 512.848,497.543 512.632,497.367C512.416,497.191 512.3,496.967 512.284,496.695L512.284,496.479C512.268,496.335 512.284,496.183 512.332,496.023C512.988,494.103 513.804,492.111 514.78,490.047C515.852,487.903 516.548,486.471 516.868,485.751C515.092,485.751 514.028,485.743 513.676,485.727Z" style="fill:white;fill-rule:nonzero;"/>
                    <path d="M521.596,490.959C522.14,490.895 523.156,490.863 524.644,490.863C524.612,489.759 524.572,488.943 524.524,488.415C524.364,486.687 524.124,485.559 523.804,485.031L523.708,484.887C523.596,484.935 523.42,485.071 523.18,485.295C522.7,485.791 522.364,486.431 522.172,487.215C521.9,488.255 521.708,489.503 521.596,490.959ZM521.5,496.647C521.5,496.919 521.404,497.151 521.212,497.343C521.02,497.535 520.788,497.631 520.516,497.631C520.26,497.631 520.032,497.535 519.832,497.343C519.632,497.151 519.532,496.919 519.532,496.647L519.532,493.863C519.532,493.607 519.54,493.155 519.556,492.507C519.572,491.859 519.596,491.347 519.628,490.971C519.66,490.595 519.7,490.135 519.748,489.591C519.796,489.047 519.868,488.543 519.964,488.079C520.06,487.615 520.164,487.159 520.276,486.711C520.596,485.575 521.1,484.647 521.788,483.927C522.476,483.239 523.14,482.903 523.78,482.919C524.484,482.919 525.052,483.287 525.484,484.023C525.964,484.839 526.3,486.247 526.492,488.247C526.604,489.751 526.644,491.367 526.612,493.095C526.612,493.495 526.604,493.899 526.588,494.307C526.572,494.715 526.556,495.043 526.54,495.291C526.524,495.539 526.516,495.687 526.516,495.735L526.516,496.119L526.54,496.143C526.572,496.303 526.564,496.447 526.516,496.575L526.516,496.695C526.516,496.743 526.508,496.783 526.492,496.815C526.476,496.927 526.436,497.031 526.372,497.127C526.116,497.383 525.892,497.527 525.7,497.559C525.268,497.639 524.964,497.527 524.788,497.223L524.572,496.815L524.572,496.719L524.548,496.671L524.548,495.735C524.548,495.687 524.556,495.539 524.572,495.291C524.588,495.043 524.604,494.711 524.62,494.295C524.636,493.879 524.644,493.463 524.644,493.047L524.644,492.831C523.092,492.831 522.052,492.863 521.524,492.927C521.508,493.759 521.5,494.999 521.5,496.647Z" style="fill:white;fill-rule:nonzero;"/>
                    <path d="M527.308,485.679C527.036,485.663 526.808,485.555 526.624,485.355C526.44,485.155 526.356,484.927 526.372,484.671C526.388,484.399 526.496,484.167 526.696,483.975C526.896,483.783 527.132,483.703 527.404,483.735C527.868,483.751 528.908,483.743 530.524,483.711C532.316,483.631 533.396,483.591 533.764,483.591C534.036,483.591 534.268,483.687 534.46,483.879C534.652,484.071 534.748,484.303 534.748,484.575C534.748,484.847 534.652,485.079 534.46,485.271C534.268,485.463 534.036,485.559 533.764,485.559C533.3,485.559 532.636,485.575 531.772,485.607C531.772,486.775 531.72,488.595 531.616,491.067C531.512,493.539 531.46,495.407 531.46,496.671C531.46,496.943 531.364,497.175 531.172,497.367C530.98,497.559 530.748,497.655 530.476,497.655C530.22,497.655 529.992,497.555 529.792,497.355C529.592,497.155 529.492,496.927 529.492,496.671C529.492,495.407 529.544,493.555 529.648,491.115C529.752,488.675 529.804,486.871 529.804,485.703C528.86,485.735 528.028,485.727 527.308,485.679Z" style="fill:white;fill-rule:nonzero;"/>
                    <path d="M540.868,488.487C540.868,488.503 540.872,488.519 540.88,488.535C540.888,488.551 540.892,488.567 540.892,488.583C541.212,490.967 541.02,493.047 540.316,494.823C539.948,495.751 539.444,496.447 538.804,496.911C538.036,497.455 537.196,497.583 536.284,497.295C535.116,496.911 534.316,495.735 533.884,493.767C533.564,492.295 533.46,490.519 533.572,488.439C533.62,487.367 533.936,486.407 534.52,485.559C535.104,484.711 535.828,484.191 536.692,483.999C537.716,483.775 538.612,484.079 539.38,484.911C540.116,485.695 540.612,486.887 540.868,488.487ZM538.948,488.871C538.948,488.855 538.94,488.831 538.924,488.799C538.716,487.583 538.388,486.735 537.94,486.255C537.668,485.967 537.396,485.855 537.124,485.919C536.772,485.999 536.428,486.279 536.092,486.759C535.756,487.239 535.572,487.831 535.54,488.535C535.428,490.471 535.516,492.079 535.804,493.359C536.076,494.575 536.436,495.255 536.884,495.399C537.172,495.511 537.436,495.479 537.676,495.303C537.98,495.079 538.252,494.671 538.492,494.079C539.068,492.639 539.22,490.903 538.948,488.871Z" style="fill:white;fill-rule:nonzero;"/>
                    <path d="M545.812,484.743C545.86,484.471 545.992,484.255 546.208,484.095C546.424,483.935 546.668,483.871 546.94,483.903C547.212,483.951 547.428,484.087 547.588,484.311C547.748,484.535 547.804,484.775 547.756,485.031C547.484,486.727 546.58,488.383 545.044,489.999C545.94,490.527 546.62,491.439 547.084,492.735C547.532,493.935 547.732,495.199 547.684,496.527C547.684,496.799 547.588,497.031 547.396,497.223C547.204,497.415 546.972,497.511 546.7,497.511C546.428,497.495 546.196,497.391 546.004,497.199C545.812,497.007 545.724,496.775 545.74,496.503C545.74,495.335 545.572,494.303 545.236,493.407C544.868,492.367 544.34,491.743 543.652,491.535C543.62,492.703 543.604,494.463 543.604,496.815C543.604,497.087 543.508,497.319 543.316,497.511C543.124,497.703 542.892,497.799 542.62,497.799C542.348,497.799 542.116,497.703 541.924,497.511C541.732,497.319 541.636,497.087 541.636,496.815C541.636,491.951 541.732,487.903 541.924,484.671C541.94,484.399 542.048,484.175 542.248,483.999C542.448,483.823 542.684,483.743 542.956,483.759C543.228,483.775 543.456,483.883 543.64,484.083C543.824,484.283 543.908,484.519 543.892,484.791C543.796,486.455 543.74,487.703 543.724,488.535C544.924,487.207 545.62,485.943 545.812,484.743Z" style="fill:white;fill-rule:nonzero;"/>
                    <path d="M549.988,490.959C550.532,490.895 551.548,490.863 553.036,490.863C553.004,489.759 552.964,488.943 552.916,488.415C552.756,486.687 552.516,485.559 552.196,485.031L552.1,484.887C551.988,484.935 551.812,485.071 551.572,485.295C551.092,485.791 550.756,486.431 550.564,487.215C550.292,488.255 550.1,489.503 549.988,490.959ZM549.892,496.647C549.892,496.919 549.796,497.151 549.604,497.343C549.412,497.535 549.18,497.631 548.908,497.631C548.652,497.631 548.424,497.535 548.224,497.343C548.024,497.151 547.924,496.919 547.924,496.647L547.924,493.863C547.924,493.607 547.932,493.155 547.948,492.507C547.964,491.859 547.988,491.347 548.02,490.971C548.052,490.595 548.092,490.135 548.14,489.591C548.188,489.047 548.26,488.543 548.356,488.079C548.452,487.615 548.556,487.159 548.668,486.711C548.988,485.575 549.492,484.647 550.18,483.927C550.868,483.239 551.532,482.903 552.172,482.919C552.876,482.919 553.444,483.287 553.876,484.023C554.356,484.839 554.692,486.247 554.884,488.247C554.996,489.751 555.036,491.367 555.004,493.095C555.004,493.495 554.996,493.899 554.98,494.307C554.964,494.715 554.948,495.043 554.932,495.291C554.916,495.539 554.908,495.687 554.908,495.735L554.908,496.119L554.932,496.143C554.964,496.303 554.956,496.447 554.908,496.575L554.908,496.695C554.908,496.743 554.9,496.783 554.884,496.815C554.868,496.927 554.828,497.031 554.764,497.127C554.508,497.383 554.284,497.527 554.092,497.559C553.66,497.639 553.356,497.527 553.18,497.223L552.964,496.815L552.964,496.719L552.94,496.671L552.94,495.735C552.94,495.687 552.948,495.539 552.964,495.291C552.98,495.043 552.996,494.711 553.012,494.295C553.028,493.879 553.036,493.463 553.036,493.047L553.036,492.831C551.484,492.831 550.444,492.863 549.916,492.927C549.9,493.759 549.892,494.999 549.892,496.647Z" style="fill:white;fill-rule:nonzero;"/>
                    <path d="M566.188,486.975C566.124,487.231 565.976,487.431 565.744,487.575C565.512,487.719 565.26,487.751 564.988,487.671C564.732,487.607 564.532,487.459 564.388,487.227C564.244,486.995 564.212,486.743 564.292,486.471C564.404,486.023 564.324,485.743 564.052,485.631C563.796,485.455 563.5,485.567 563.164,485.967C562.444,486.863 562.116,487.623 562.18,488.247C562.228,488.711 562.524,489.231 563.068,489.807C563.324,490.079 563.628,490.367 563.98,490.671L564.988,491.607C565.852,492.471 566.332,493.319 566.428,494.151C566.492,494.871 566.32,495.543 565.912,496.167C565.504,496.791 564.988,497.263 564.364,497.583C563.644,497.935 562.956,498.023 562.3,497.847C561.532,497.655 560.956,497.127 560.572,496.263C560.252,495.511 560.212,494.607 560.452,493.551C560.516,493.279 560.664,493.071 560.896,492.927C561.128,492.783 561.372,492.743 561.628,492.807C561.9,492.871 562.108,493.019 562.252,493.251C562.396,493.483 562.436,493.727 562.372,493.983C562.228,494.639 562.236,495.143 562.396,495.495C562.508,495.767 562.644,495.919 562.804,495.951C563.028,495.983 563.252,495.935 563.476,495.807C563.796,495.663 564.048,495.447 564.232,495.159C564.416,494.871 564.492,494.599 564.46,494.343C564.444,494.007 564.156,493.559 563.596,492.999C563.324,492.727 563.02,492.447 562.684,492.159C562.108,491.615 561.764,491.287 561.652,491.175C560.788,490.279 560.308,489.367 560.212,488.439C560.116,487.255 560.596,486.015 561.652,484.719C562.1,484.191 562.62,483.847 563.212,483.687C563.804,483.527 564.372,483.583 564.916,483.855C565.46,484.127 565.856,484.547 566.104,485.115C566.352,485.683 566.38,486.303 566.188,486.975Z" style="fill:white;fill-rule:nonzero;"/>
                    <path d="M575.644,484.143C575.804,483.935 576.02,483.815 576.292,483.783C576.564,483.751 576.804,483.823 577.012,483.999C577.348,484.255 577.46,484.591 577.348,485.007C577.412,486.463 577.356,488.415 577.18,490.863C576.956,493.487 576.844,495.439 576.844,496.719C576.844,496.991 576.748,497.223 576.556,497.415C576.364,497.607 576.132,497.703 575.86,497.703C575.588,497.703 575.356,497.607 575.164,497.415C574.972,497.223 574.876,496.991 574.876,496.719C574.876,495.807 574.988,493.799 575.212,490.695C575.26,490.119 575.316,489.255 575.38,488.103C574.404,489.927 573.676,491.759 573.196,493.599C573.132,493.855 572.98,494.055 572.74,494.199C572.5,494.343 572.244,494.375 571.972,494.295C571.492,494.167 571.252,493.855 571.252,493.359C570.98,491.407 570.332,489.503 569.308,487.647C569.276,488.431 569.196,489.511 569.068,490.887C568.828,493.431 568.708,495.423 568.708,496.863C568.708,497.135 568.612,497.367 568.42,497.559C568.228,497.751 567.996,497.847 567.724,497.847C567.452,497.847 567.22,497.751 567.028,497.559C566.836,497.367 566.74,497.135 566.74,496.863C566.74,495.647 566.86,493.599 567.1,490.719C567.34,487.839 567.46,485.839 567.46,484.719C567.46,484.287 567.66,483.991 568.06,483.831C568.268,483.703 568.496,483.659 568.744,483.699C568.992,483.739 569.188,483.863 569.332,484.071C570.708,485.863 571.732,487.767 572.404,489.783C573.38,487.479 574.46,485.599 575.644,484.143Z" style="fill:white;fill-rule:nonzero;"/>
                    <path d="M579.604,490.959C580.148,490.895 581.164,490.863 582.652,490.863C582.62,489.759 582.58,488.943 582.532,488.415C582.372,486.687 582.132,485.559 581.812,485.031L581.716,484.887C581.604,484.935 581.428,485.071 581.188,485.295C580.708,485.791 580.372,486.431 580.18,487.215C579.908,488.255 579.716,489.503 579.604,490.959ZM579.508,496.647C579.508,496.919 579.412,497.151 579.22,497.343C579.028,497.535 578.796,497.631 578.524,497.631C578.268,497.631 578.04,497.535 577.84,497.343C577.64,497.151 577.54,496.919 577.54,496.647L577.54,493.863C577.54,493.607 577.548,493.155 577.564,492.507C577.58,491.859 577.604,491.347 577.636,490.971C577.668,490.595 577.708,490.135 577.756,489.591C577.804,489.047 577.876,488.543 577.972,488.079C578.068,487.615 578.172,487.159 578.284,486.711C578.604,485.575 579.108,484.647 579.796,483.927C580.484,483.239 581.148,482.903 581.788,482.919C582.492,482.919 583.06,483.287 583.492,484.023C583.972,484.839 584.308,486.247 584.5,488.247C584.612,489.751 584.652,491.367 584.62,493.095C584.62,493.495 584.612,493.899 584.596,494.307C584.58,494.715 584.564,495.043 584.548,495.291C584.532,495.539 584.524,495.687 584.524,495.735L584.524,496.119L584.548,496.143C584.58,496.303 584.572,496.447 584.524,496.575L584.524,496.695C584.524,496.743 584.516,496.783 584.5,496.815C584.484,496.927 584.444,497.031 584.38,497.127C584.124,497.383 583.9,497.527 583.708,497.559C583.276,497.639 582.972,497.527 582.796,497.223L582.58,496.815L582.58,496.719L582.556,496.671L582.556,495.735C582.556,495.687 582.564,495.539 582.58,495.291C582.596,495.043 582.612,494.711 582.628,494.295C582.644,493.879 582.652,493.463 582.652,493.047L582.652,492.831C581.1,492.831 580.06,492.863 579.532,492.927C579.516,493.759 579.508,494.999 579.508,496.647Z" style="fill:white;fill-rule:nonzero;"/>
                    <path d="M589.42,484.743C589.468,484.471 589.6,484.255 589.816,484.095C590.032,483.935 590.276,483.871 590.548,483.903C590.82,483.951 591.036,484.087 591.196,484.311C591.356,484.535 591.412,484.775 591.364,485.031C591.092,486.727 590.188,488.383 588.652,489.999C589.548,490.527 590.228,491.439 590.692,492.735C591.14,493.935 591.34,495.199 591.292,496.527C591.292,496.799 591.196,497.031 591.004,497.223C590.812,497.415 590.58,497.511 590.308,497.511C590.036,497.495 589.804,497.391 589.612,497.199C589.42,497.007 589.332,496.775 589.348,496.503C589.348,495.335 589.18,494.303 588.844,493.407C588.476,492.367 587.948,491.743 587.26,491.535C587.228,492.703 587.212,494.463 587.212,496.815C587.212,497.087 587.116,497.319 586.924,497.511C586.732,497.703 586.5,497.799 586.228,497.799C585.956,497.799 585.724,497.703 585.532,497.511C585.34,497.319 585.244,497.087 585.244,496.815C585.244,491.951 585.34,487.903 585.532,484.671C585.548,484.399 585.656,484.175 585.856,483.999C586.056,483.823 586.292,483.743 586.564,483.759C586.836,483.775 587.064,483.883 587.248,484.083C587.432,484.283 587.516,484.519 587.5,484.791C587.404,486.455 587.348,487.703 587.332,488.535C588.532,487.207 589.228,485.943 589.42,484.743Z" style="fill:white;fill-rule:nonzero;"/>
                    <path d="M592.204,484.815C592.204,484.543 592.3,484.311 592.492,484.119C592.684,483.927 592.916,483.831 593.188,483.831C593.46,483.831 593.692,483.927 593.884,484.119C594.076,484.311 594.172,484.543 594.172,484.815C594.172,485.423 594.124,486.335 594.028,487.551C594.012,487.759 593.988,488.047 593.956,488.415C593.924,488.783 593.896,489.119 593.872,489.423C593.848,489.727 593.828,490.015 593.812,490.287C593.732,492.399 593.924,494.039 594.388,495.207C594.516,495.543 594.628,495.711 594.724,495.711C595.332,495.903 595.812,495.719 596.164,495.159C596.58,494.551 596.892,493.479 597.1,491.943C597.196,491.111 597.256,490.231 597.28,489.303C597.304,488.375 597.3,487.423 597.268,486.447C597.236,485.471 597.22,484.959 597.22,484.911C597.22,484.639 597.316,484.407 597.508,484.215C597.7,484.023 597.932,483.927 598.204,483.927C598.476,483.927 598.708,484.023 598.9,484.215C599.092,484.407 599.188,484.639 599.188,484.911C599.188,485.007 599.196,485.371 599.212,486.003C599.228,486.635 599.24,487.239 599.248,487.815C599.256,488.391 599.244,489.095 599.212,489.927C599.18,490.759 599.124,491.511 599.044,492.183C598.804,493.991 598.396,495.343 597.82,496.239C596.94,497.599 595.724,498.055 594.172,497.607C593.452,497.399 592.916,496.847 592.564,495.951C591.972,494.463 591.732,492.543 591.844,490.191C591.844,490.047 591.916,489.111 592.06,487.383C592.156,486.167 592.204,485.311 592.204,484.815Z" style="fill:white;fill-rule:nonzero;"/>
                </g>
                <g transform="matrix(0.631508,0,0,0.631508,-106.169,-454.461)">
                    <path d="M514.157,480.345L517.438,480.345L517.438,494.454L522.219,494.454L522.219,497.583L514.157,497.583L514.157,480.345Z" style="fill:white;fill-rule:nonzero;"/>
                    <path d="M532.86,479.911C535.297,479.911 537.393,480.794 539.147,482.559C540.901,484.325 541.778,486.477 541.778,489.016C541.778,491.532 540.912,493.661 539.182,495.403C537.451,497.145 535.352,498.016 532.883,498.016C530.297,498.016 528.149,497.122 526.438,495.333C524.727,493.544 523.871,491.419 523.871,488.958C523.871,487.309 524.27,485.794 525.067,484.411C525.864,483.028 526.959,481.932 528.354,481.124C529.748,480.315 531.25,479.911 532.86,479.911ZM532.824,483.122C531.231,483.122 529.891,483.677 528.805,484.786C527.719,485.895 527.176,487.306 527.176,489.016C527.176,490.923 527.86,492.431 529.227,493.54C530.289,494.407 531.508,494.841 532.883,494.841C534.438,494.841 535.762,494.278 536.856,493.153C537.949,492.028 538.496,490.641 538.496,488.993C538.496,487.352 537.946,485.964 536.844,484.827C535.742,483.69 534.403,483.122 532.824,483.122Z" style="fill:white;fill-rule:nonzero;"/>
                    <path d="M544.883,480.345L548.774,480.345C551.282,480.345 553.145,480.655 554.364,481.276C555.582,481.897 556.586,482.907 557.375,484.306C558.164,485.704 558.559,487.337 558.559,489.204C558.559,490.532 558.338,491.753 557.897,492.866C557.455,493.979 556.846,494.903 556.069,495.638C555.291,496.372 554.449,496.88 553.543,497.161C552.637,497.442 551.067,497.583 548.832,497.583L544.883,497.583L544.883,480.345ZM548.153,483.509L548.153,494.372L549.676,494.372C551.176,494.372 552.264,494.2 552.94,493.856C553.616,493.513 554.168,492.934 554.598,492.122C555.028,491.309 555.242,490.309 555.242,489.122C555.242,487.294 554.731,485.876 553.707,484.868C552.785,483.962 551.305,483.509 549.266,483.509L548.153,483.509Z" style="fill:white;fill-rule:nonzero;"/>
                    <path d="M560.446,480.345L563.973,480.345L567.184,486.532L570.371,480.345L573.852,480.345L568.813,490.118L568.813,497.583L565.508,497.583L565.508,490.118L560.446,480.345Z" style="fill:white;fill-rule:nonzero;"/>
                    <path d="M605.903,483.157L603.594,485.442C602.133,483.895 600.43,483.122 598.485,483.122C596.789,483.122 595.369,483.684 594.225,484.809C593.08,485.934 592.508,487.302 592.508,488.911C592.508,490.575 593.102,491.985 594.289,493.141C595.477,494.298 596.942,494.876 598.684,494.876C599.817,494.876 600.772,494.638 601.549,494.161C602.326,493.684 602.953,492.938 603.43,491.923L598.438,491.923L598.438,488.841L607.11,488.841L607.133,489.567C607.133,491.075 606.742,492.505 605.961,493.856C605.18,495.208 604.168,496.239 602.926,496.95C601.684,497.661 600.227,498.016 598.555,498.016C596.766,498.016 595.17,497.628 593.768,496.85C592.366,496.073 591.256,494.966 590.44,493.528C589.623,492.091 589.215,490.54 589.215,488.876C589.215,486.595 589.969,484.61 591.477,482.923C593.266,480.915 595.594,479.911 598.461,479.911C599.961,479.911 601.364,480.188 602.668,480.743C603.77,481.212 604.848,482.016 605.903,483.157Z" style="fill:white;fill-rule:nonzero;"/>
                    <path d="M618.289,479.911C620.727,479.911 622.823,480.794 624.576,482.559C626.33,484.325 627.207,486.477 627.207,489.016C627.207,491.532 626.342,493.661 624.612,495.403C622.881,497.145 620.782,498.016 618.313,498.016C615.727,498.016 613.578,497.122 611.867,495.333C610.157,493.544 609.301,491.419 609.301,488.958C609.301,487.309 609.699,485.794 610.496,484.411C611.293,483.028 612.389,481.932 613.783,481.124C615.178,480.315 616.68,479.911 618.289,479.911ZM618.254,483.122C616.66,483.122 615.321,483.677 614.235,484.786C613.149,485.895 612.606,487.306 612.606,489.016C612.606,490.923 613.289,492.431 614.657,493.54C615.719,494.407 616.938,494.841 618.313,494.841C619.867,494.841 621.192,494.278 622.285,493.153C623.379,492.028 623.926,490.641 623.926,488.993C623.926,487.352 623.375,485.964 622.274,484.827C621.172,483.69 619.832,483.122 618.254,483.122Z" style="fill:white;fill-rule:nonzero;"/>
                    <path d="M630.348,480.345L638.903,480.345L638.903,483.544L633.594,483.544L633.594,486.673L638.903,486.673L638.903,489.825L633.594,489.825L633.594,497.583L630.348,497.583L630.348,480.345Z" style="fill:white;fill-rule:nonzero;"/>
                    <path d="M642.043,480.345L645.524,480.345C647.43,480.345 648.787,480.514 649.596,480.854C650.405,481.194 651.055,481.759 651.547,482.548C652.039,483.337 652.285,484.27 652.285,485.348C652.285,486.481 652.014,487.429 651.471,488.19C650.928,488.952 650.11,489.528 649.016,489.919L653.094,497.583L649.508,497.583L645.629,490.282L645.324,490.282L645.324,497.583L642.043,497.583L642.043,480.345ZM645.324,487.083L646.356,487.083C647.403,487.083 648.123,486.946 648.518,486.673C648.912,486.399 649.11,485.946 649.11,485.313C649.11,484.938 649.012,484.612 648.817,484.335C648.621,484.057 648.36,483.858 648.032,483.737C647.703,483.616 647.102,483.556 646.227,483.556L645.324,483.556L645.324,487.083Z" style="fill:white;fill-rule:nonzero;"/>
                    <path d="M654.512,480.345L658.039,480.345L661.25,486.532L664.438,480.345L667.918,480.345L662.879,490.118L662.879,497.583L659.574,497.583L659.574,490.118L654.512,480.345Z" style="fill:white;fill-rule:nonzero;"/>
                    <path d="M684.067,480.345L687.207,480.345L694.602,491.688L694.602,480.345L697.883,480.345L697.883,497.583L694.731,497.583L687.348,486.274L687.348,497.583L684.067,497.583L684.067,480.345Z" style="fill:white;fill-rule:nonzero;"/>
                    <path d="M707.059,480.345L710.387,480.345L717.02,497.583L713.61,497.583L712.262,494.032L705.231,494.032L703.824,497.583L700.414,497.583L707.059,480.345ZM708.746,484.915L706.449,490.833L711.032,490.833L708.746,484.915Z" style="fill:white;fill-rule:nonzero;"/>
                    <path d="M719.551,480.345L723.032,480.345C724.914,480.345 726.272,480.518 727.104,480.866C727.936,481.214 728.592,481.776 729.073,482.554C729.553,483.331 729.793,484.263 729.793,485.348C729.793,486.552 729.479,487.552 728.85,488.348C728.221,489.145 727.367,489.7 726.289,490.013C725.657,490.192 724.504,490.282 722.832,490.282L722.832,497.583L719.551,497.583L719.551,480.345ZM722.832,487.083L723.875,487.083C724.696,487.083 725.266,487.024 725.586,486.907C725.907,486.79 726.158,486.597 726.342,486.327C726.526,486.057 726.617,485.731 726.617,485.348C726.617,484.684 726.36,484.2 725.844,483.895C725.469,483.669 724.774,483.556 723.758,483.556L722.832,483.556L722.832,487.083Z" style="fill:white;fill-rule:nonzero;"/>
                    <path d="M741.149,479.911C743.586,479.911 745.682,480.794 747.436,482.559C749.19,484.325 750.067,486.477 750.067,489.016C750.067,491.532 749.201,493.661 747.471,495.403C745.741,497.145 743.641,498.016 741.172,498.016C738.586,498.016 736.438,497.122 734.727,495.333C733.016,493.544 732.16,491.419 732.16,488.958C732.16,487.309 732.559,485.794 733.356,484.411C734.153,483.028 735.248,481.932 736.643,481.124C738.037,480.315 739.539,479.911 741.149,479.911ZM741.114,483.122C739.52,483.122 738.18,483.677 737.094,484.786C736.008,485.895 735.465,487.306 735.465,489.016C735.465,490.923 736.149,492.431 737.516,493.54C738.578,494.407 739.797,494.841 741.172,494.841C742.727,494.841 744.051,494.278 745.145,493.153C746.239,492.028 746.785,490.641 746.785,488.993C746.785,487.352 746.235,485.964 745.133,484.827C744.032,483.69 742.692,483.122 741.114,483.122Z" style="fill:white;fill-rule:nonzero;"/>
                    <path d="M757.449,480.345L760.742,480.345L760.742,491.782C760.742,493.602 760.598,494.88 760.309,495.614C760.02,496.348 759.543,496.932 758.879,497.366C758.215,497.8 757.418,498.016 756.489,498.016C754.59,498.016 752.973,497.184 751.637,495.52L754.004,493.306C754.528,493.899 754.973,494.298 755.34,494.501C755.707,494.704 756.063,494.806 756.407,494.806C756.758,494.806 757.02,494.657 757.192,494.36C757.364,494.063 757.449,493.411 757.449,492.403L757.449,480.345Z" style="fill:white;fill-rule:nonzero;"/>
                    <path d="M764.692,480.345L774.102,480.345L774.102,483.556L767.949,483.556L767.949,486.673L774.102,486.673L774.102,489.825L767.949,489.825L767.949,494.36L774.102,494.36L774.102,497.583L764.692,497.583L764.692,480.345Z" style="fill:white;fill-rule:nonzero;"/>
                </g>
                <g transform="matrix(1.28915,0,0,1.28915,-677.645,-795.267)">
                    <circle cx="727.917" cy="504.302" r="1.209" style="fill:white;"/>
                </g>
                <g transform="matrix(1.28915,0,0,1.28915,-618.607,-795.267)">
                    <circle cx="727.917" cy="504.302" r="1.209" style="fill:white;"/>
                </g>
                <g transform="matrix(0.736184,0,0,0.736184,-2040.69,-1023.83)">
                    <path d="M2967.33,1215.73L2967.34,1215.69L2990.47,1155.64L2997.49,1155.64C2997.4,1155.84 2997.35,1156.07 2997.35,1156.31C2997.35,1157.47 2997.65,1158.33 2998.09,1158.98C2999.01,1160.32 3000.77,1160.85 3002.88,1161.04C3003.95,1161.13 3005.13,1161.17 3006.21,1161.42C3007,1161.61 3007.74,1161.91 3008.26,1162.6C3008.76,1163.25 3009.03,1164.2 3009.1,1165.55C3009.13,1166.31 3009.01,1166.89 3008.71,1167.34C3008.22,1168.07 3007.33,1168.38 3006.29,1168.61C3004.72,1168.96 3002.81,1169.02 3000.91,1169.09C2998.19,1169.2 2995.47,1169.36 2993.41,1170.15C2990.88,1171.14 2989.18,1172.95 2989.18,1176.41C2989.18,1178.53 2989.78,1179.92 2990.65,1180.85C2991.5,1181.76 2992.65,1182.27 2994.02,1182.48C2995.6,1182.71 2997.52,1182.51 2999.43,1182.31C3000.8,1182.16 3002.16,1182.01 3003.36,1182.1C3004.18,1182.16 3004.91,1182.31 3005.39,1182.85C3005.83,1183.35 3006,1184.12 3006,1185.23C3006,1187.62 3004.4,1188.7 3002.3,1189.29C2999.55,1190.06 2996.01,1190.05 2992.86,1190.12C2990,1190.19 2987.42,1190.36 2985.82,1191.01C2984.12,1191.7 2983.22,1192.86 2983.22,1194.53C2983.22,1196.33 2983.76,1197.42 2984.46,1198.14C2985.17,1198.86 2986.13,1199.24 2987.2,1199.42C2987.84,1199.53 2988.54,1199.56 2989.2,1199.66C2989.6,1199.72 2990,1199.76 2990.27,1200.02C2990.54,1200.28 2990.61,1200.72 2990.61,1201.4C2990.62,1202.18 2990.24,1202.67 2989.64,1203C2989.02,1203.35 2988.23,1203.57 2987.36,1203.74C2984.99,1204.21 2982.06,1204.31 2979.52,1204.77C2977.52,1205.13 2975.74,1205.73 2974.47,1206.72C2969.87,1210.33 2971,1214.98 2971,1214.98C2971.05,1215.18 2971.12,1215.36 2971.23,1215.53C2969.94,1215.63 2968.64,1215.7 2967.33,1215.73ZM2904.33,1155.63C2904.37,1155.64 2904.41,1155.64 2904.45,1155.64L2941.03,1155.64L2964.23,1215.7L2964.24,1215.71C2956.94,1215.5 2949.96,1214.02 2943.51,1211.48C2943.65,1211.35 2943.76,1211.2 2943.85,1211.03C2945.76,1207.26 2945.36,1204.65 2944.23,1202.91C2942.53,1200.29 2938.74,1199.51 2936.7,1199.68C2935.95,1199.74 2935,1199.87 2934.14,1199.77C2933.78,1199.73 2933.42,1199.68 2933.18,1199.45C2932.95,1199.24 2932.89,1198.88 2932.89,1198.39C2932.89,1197.8 2933.01,1197.37 2933.24,1197.09C2933.74,1196.49 2934.58,1196.55 2934.58,1196.55C2934.6,1196.55 2934.63,1196.55 2934.65,1196.55L2944.12,1196.55C2944.94,1196.66 2947.77,1196.88 2949.59,1195.2C2950.54,1194.33 2951.3,1192.96 2951.3,1190.78C2951.3,1184.24 2944.63,1184.18 2943.89,1184.2L2943.82,1184.2L2943.91,1184.2L2924.74,1184.2C2924.55,1184.19 2922.34,1184.13 2920.54,1183.45C2920.14,1183.3 2919.75,1183.12 2919.44,1182.88C2919.21,1182.7 2919.01,1182.5 2919.01,1182.19C2919,1181.23 2919.86,1180.84 2920.72,1180.55C2922.8,1179.86 2925.4,1180.04 2925.4,1180.04C2925.44,1180.04 2925.49,1180.05 2925.53,1180.05C2925.53,1180.05 2928.24,1180 2930.41,1178.95C2932.2,1178.08 2933.61,1176.59 2933.61,1174.23C2933.61,1171.41 2932,1169.86 2930.03,1169.03C2927.83,1168.12 2925.14,1168.25 2924.6,1168.29C2924.61,1168.29 2907,1168.29 2907,1168.29C2906.64,1168.29 2906.32,1168.4 2906.05,1168.58C2905.03,1164.42 2904.44,1160.08 2904.33,1155.63ZM3027.83,1154.85C3027.4,1185.79 3004.16,1211.27 2974.19,1215.21C2974.3,1214.91 2974.33,1214.59 2974.26,1214.26C2974.26,1214.26 2973.75,1211.53 2976.53,1209.34C2977.68,1208.44 2979.45,1208.12 2981.34,1207.86C2983.59,1207.55 2986,1207.41 2988.01,1207.01C2991.58,1206.3 2993.97,1204.69 2993.95,1201.38C2993.93,1199.56 2993.39,1198.46 2992.69,1197.73C2991.97,1196.98 2991.01,1196.59 2989.94,1196.4C2989.29,1196.29 2988.59,1196.25 2987.92,1196.16C2987.52,1196.1 2987.12,1196.07 2986.85,1195.82C2986.6,1195.58 2986.55,1195.16 2986.55,1194.53C2986.55,1194.36 2986.7,1194.28 2986.86,1194.19C2987.09,1194.08 2987.36,1193.99 2987.66,1193.91C2989.77,1193.37 2993.05,1193.49 2996.34,1193.37C2999.4,1193.25 3002.46,1192.94 3004.76,1191.96C3007.52,1190.78 3009.33,1188.74 3009.33,1185.23C3009.33,1183.07 3008.75,1181.63 3007.9,1180.66C3007.05,1179.69 3005.9,1179.13 3004.53,1178.89C3002.94,1178.61 3001.01,1178.78 2999.07,1178.99C2997.52,1179.16 2995.97,1179.36 2994.67,1179.2C2994.04,1179.12 2993.47,1178.99 2993.08,1178.57C2992.66,1178.13 2992.51,1177.42 2992.51,1176.41C2992.51,1175.57 2992.67,1174.91 2993.02,1174.4C2993.58,1173.6 2994.52,1173.22 2995.62,1172.95C2997.23,1172.57 2999.14,1172.5 3001.03,1172.42C3003.74,1172.32 3006.43,1172.19 3008.41,1171.46C3009.67,1171 3010.68,1170.31 3011.39,1169.34C3012.09,1168.36 3012.5,1167.09 3012.43,1165.4C3012.31,1162.91 3011.59,1161.3 3010.61,1160.2C3009.15,1158.58 3007.02,1158.06 3004.88,1157.86C3003.79,1157.75 3002.72,1157.73 3001.81,1157.54C3001.41,1157.45 3001.04,1157.39 3000.84,1157.1C3000.71,1156.91 3000.68,1156.65 3000.68,1156.31C3000.68,1156.07 3000.63,1155.84 3000.54,1155.64L3026.42,1155.64C3027.01,1155.64 3027.54,1155.32 3027.83,1154.85ZM2969.97,1199.61L2965.71,1189.34L2961.52,1199.43L2965.78,1210.46L2969.97,1199.61ZM2934.7,1193.22C2934.49,1193.21 2932.13,1193.22 2930.68,1194.96C2930.05,1195.71 2929.56,1196.8 2929.56,1198.39C2929.56,1200.08 2930.13,1201.16 2930.9,1201.88C2931.66,1202.59 2932.66,1202.96 2933.77,1203.08C2934.86,1203.2 2936.04,1203.08 2936.98,1203C2938.17,1202.9 2940.44,1203.2 2941.43,1204.73C2942.1,1205.76 2942.01,1207.28 2940.88,1209.52C2940.75,1209.77 2940.69,1210.03 2940.7,1210.29C2924.5,1202.98 2912.01,1188.87 2906.87,1171.61C2906.91,1171.62 2906.95,1171.62 2907,1171.62L2924.67,1171.62C2924.72,1171.62 2924.78,1171.62 2924.83,1171.61C2924.83,1171.61 2926.37,1171.46 2927.91,1171.84C2929.04,1172.12 2930.28,1172.68 2930.28,1174.23C2930.28,1175.13 2929.63,1175.62 2928.95,1175.95C2927.57,1176.62 2925.87,1176.7 2925.55,1176.71C2925.02,1176.69 2922.06,1176.59 2919.66,1177.39C2917.38,1178.16 2915.64,1179.69 2915.67,1182.23C2915.69,1183.9 2916.65,1185.15 2918.12,1186C2920.6,1187.42 2924.69,1187.53 2924.69,1187.53C2924.7,1187.53 2924.71,1187.53 2924.72,1187.53L2943.91,1187.53C2943.95,1187.53 2943.98,1187.53 2944.01,1187.53C2944.01,1187.53 2947.96,1187.22 2947.96,1190.78C2947.96,1191.73 2947.75,1192.37 2947.33,1192.75C2946.96,1193.09 2946.48,1193.21 2946.05,1193.28C2945.25,1193.39 2944.57,1193.25 2944.57,1193.25C2944.45,1193.23 2944.34,1193.22 2944.22,1193.22L2934.65,1193.22L2934.7,1193.22ZM2967.51,1184.99L2971.7,1195.1L2976.83,1181.78L2972.9,1172L2967.51,1184.99ZM2954.64,1181.63L2959.78,1194.92L2963.9,1184.99L2958.51,1172L2954.64,1181.63ZM2965.01,1155.81L2960.29,1167.58L2965.71,1180.64L2971.12,1167.58L2966.4,1155.81L2965.01,1155.81ZM2979.61,1155.81L2974.72,1167.6L2978.59,1177.21L2986.83,1155.81L2979.61,1155.81ZM2956.69,1167.6L2951.8,1155.81L2944.66,1155.81L2952.88,1177.07L2956.69,1167.6ZM3006.96,1176.48L3017.78,1176.35C3018.7,1176.34 3019.44,1175.58 3019.43,1174.66C3019.42,1173.74 3018.66,1173.01 3017.74,1173.02L3006.92,1173.15C3006,1173.16 3005.26,1173.92 3005.28,1174.84C3005.29,1175.76 3006.04,1176.49 3006.96,1176.48ZM2935.8,1169.5L2942.62,1169.5C2943.53,1169.5 2944.28,1168.76 2944.28,1167.84C2944.28,1166.92 2943.53,1166.17 2942.62,1166.17L2935.8,1166.17C2934.88,1166.17 2934.14,1166.92 2934.14,1167.84C2934.14,1168.76 2934.88,1169.5 2935.8,1169.5ZM3016.33,1168.57L3021.42,1168.57C3022.34,1168.57 3023.09,1167.83 3023.09,1166.9C3023.09,1165.99 3022.34,1165.24 3021.42,1165.24L3016.33,1165.24C3015.41,1165.24 3014.66,1165.99 3014.66,1166.9C3014.66,1167.83 3015.41,1168.57 3016.33,1168.57ZM2955.41,1155.81L2958.46,1163.18L2961.42,1155.81L2955.41,1155.81ZM2969.99,1155.81L2972.95,1163.18L2976.01,1155.81L2969.99,1155.81ZM2910.68,1162.98L2937.33,1162.98C2938.25,1162.98 2939,1162.24 2939,1161.32C2939,1160.39 2938.25,1159.65 2937.33,1159.65L2910.68,1159.65C2909.76,1159.65 2909.01,1160.39 2909.01,1161.32C2909.01,1162.24 2909.76,1162.98 2910.68,1162.98ZM2904.33,1152.31C2905.21,1118.99 2932.54,1092.2 2966.07,1092.2C2999.87,1092.2 3027.36,1119.41 3027.83,1153.09C3027.54,1152.62 3027.01,1152.3 3026.42,1152.3L2991.28,1152.3C2990.43,1139.15 2979.48,1128.72 2966.11,1128.7L2966.07,1128.7C2952.69,1128.7 2941.72,1139.13 2940.86,1152.3L2904.45,1152.3C2904.41,1152.3 2904.37,1152.31 2904.33,1152.31ZM2987.94,1152.3L2944.2,1152.3C2945.05,1140.98 2954.53,1132.04 2966.07,1132.04C2977.62,1132.04 2987.09,1140.98 2987.94,1152.3ZM3000.48,1143.38L3018.43,1138.52C3019.31,1138.28 3019.84,1137.36 3019.6,1136.48C3019.36,1135.59 3018.44,1135.06 3017.55,1135.3L2999.61,1140.17C2998.72,1140.41 2998.2,1141.32 2998.44,1142.21C2998.68,1143.1 2999.59,1143.62 3000.48,1143.38ZM2932.25,1140L2914.31,1135.14C2913.43,1134.9 2912.51,1135.42 2912.27,1136.31C2912.03,1137.2 2912.55,1138.12 2913.44,1138.36L2931.38,1143.22C2932.27,1143.46 2933.18,1142.93 2933.43,1142.05C2933.67,1141.16 2933.14,1140.24 2932.25,1140ZM2988.65,1125.16L2998.92,1109.68C2999.43,1108.91 2999.22,1107.88 2998.46,1107.37C2997.69,1106.86 2996.65,1107.07 2996.15,1107.84L2985.87,1123.31C2985.36,1124.08 2985.57,1125.12 2986.34,1125.62C2987.1,1126.13 2988.14,1125.92 2988.65,1125.16ZM2946.64,1123.15L2936.28,1107.72C2935.77,1106.96 2934.74,1106.75 2933.97,1107.27C2933.21,1107.78 2933,1108.81 2933.52,1109.58L2943.87,1125.01C2944.38,1125.77 2945.42,1125.98 2946.18,1125.46C2946.95,1124.95 2947.15,1123.91 2946.64,1123.15ZM2967.74,1117.05L2967.74,1098.39C2967.74,1097.47 2966.99,1096.72 2966.07,1096.72C2965.15,1096.72 2964.4,1097.47 2964.4,1098.39L2964.4,1117.05C2964.4,1117.96 2965.15,1118.71 2966.07,1118.71C2966.99,1118.71 2967.74,1117.96 2967.74,1117.05Z" style="fill:white;"/>
                </g>
            </g>
        </g>
    </g>
</svg>
