<?xml version="1.0" encoding="UTF-8" standalone="no"?>
<!DOCTYPE svg PUBLIC "-//W3C//DTD SVG 1.1//EN" "http://www.w3.org/Graphics/SVG/1.1/DTD/svg11.dtd">
<svg width="100%" height="100%" viewBox="0 0 555 616" version="1.1" xmlns="http://www.w3.org/2000/svg" xmlns:xlink="http://www.w3.org/1999/xlink" xml:space="preserve" xmlns:serif="http://www.serif.com/" style="fill-rule:evenodd;clip-rule:evenodd;stroke-linecap:round;stroke-linejoin:round;stroke-miterlimit:1.5;">
    <g transform="matrix(1,0,0,1,-104.637,-218.292)">
        <path d="M217.009,280.745C217.009,280.745 212.128,271.254 207.675,262.597C205.804,258.959 205.501,254.714 206.835,250.846C208.169,246.978 211.025,243.823 214.741,242.112C225.595,237.114 240.431,230.283 251.019,225.408C258.373,222.022 267.088,225.084 270.709,232.325C272.802,236.511 275.124,241.156 277.231,245.369C280.928,252.764 277.945,261.756 270.562,265.474C259.867,270.861 244.947,278.375 234.302,283.736C226.993,287.418 223.984,296.278 227.539,303.65C245.713,341.328 296.293,446.189 296.293,446.189C296.293,446.189 300.324,453.85 308.536,449.744C316.749,445.638 312.643,439.185 312.643,439.185L244.889,296.931C244.889,296.931 242.878,288.84 250.168,285.802C260.727,281.402 262.194,289.028 262.194,289.028L328.775,426.883C328.775,426.883 332.38,435.237 340.8,431.576C347.546,428.643 343.147,421.017 343.147,421.017L278.032,283.749C278.032,283.749 275.099,275.096 282.139,271.87C289.178,268.644 293.578,275.976 293.578,275.976C293.578,275.976 353.205,400.08 364.05,422.65C365.153,424.945 365.653,427.484 365.504,430.026C364.808,441.876 362.721,477.419 362.141,487.285C362.11,487.806 361.801,488.271 361.331,488.5C360.862,488.729 360.305,488.688 359.875,488.391C350.425,482.018 311.97,457.549 298.746,471.975C283.622,488.474 276.29,548.51 356.491,543.928C436.692,539.345 431.651,462.351 466.94,451.352C502.228,440.353 515.411,449.834 515.411,449.834C515.411,449.834 603.521,481.975 641.087,495.678C645.231,497.19 648.499,500.449 650.023,504.588C651.547,508.727 651.172,513.328 648.997,517.165C625.798,558.104 563.021,668.887 542.55,705.013C538.81,711.612 530.732,714.381 523.73,711.464C492.554,698.474 411.795,664.824 398.29,659.197C396.131,658.297 394.538,656.412 394.01,654.133C393.572,652.173 393.768,649.657 395.801,646.842C396.94,645.266 398.436,644.285 399.945,643.68C402.795,642.55 405.979,642.613 408.782,643.855C422.664,649.999 493.326,681.306 493.326,681.306C493.326,681.306 503.082,687.187 507.502,678.505C511.417,670.816 499.926,666.64 499.926,666.64C499.926,666.64 435.397,638.596 417.556,630.842C415.103,629.776 413.264,627.659 412.553,625.081C411.842,622.503 412.335,619.742 413.894,617.569C413.895,617.568 413.896,617.566 413.897,617.565C417.448,612.621 424.173,615.222 424.393,615.309C424.395,615.31 424.397,615.311 424.399,615.311C424.432,615.325 542.455,664.44 542.455,664.44C542.455,664.44 549.402,668.119 553.203,661.276C556.701,654.979 548.688,650.875 548.688,650.875C548.688,650.875 450.201,610.613 434.264,604.098C431.949,603.151 430.317,601.037 429.989,598.557C429.81,597.197 429.977,595.642 430.885,594.035C434.064,588.409 440.178,590.614 440.516,590.741C440.521,590.743 440.526,590.745 440.531,590.747C440.564,590.76 556.387,639.509 556.387,639.509C556.387,639.509 564.831,644.531 568.864,636.832C572.897,629.133 563.72,626.31 563.72,626.31C563.72,626.31 460.73,583.764 452.427,580.333C451.537,579.965 450.705,579.469 449.957,578.861C448.029,577.28 445.776,574.231 448.963,569.849C451.993,565.683 457.734,567.877 459.672,568.785C459.914,568.902 460.159,569.013 460.407,569.117C463.437,570.422 568.486,614.578 568.486,614.578C568.486,614.578 578.539,618.316 581.839,610.983C585.139,603.65 576.552,599.913 576.552,599.913C576.552,599.913 467.35,556.671 467.295,556.65C467.292,556.649 467.29,556.648 467.287,556.646C466.992,556.521 458.579,552.855 463.262,545.651C466.604,540.509 474.252,543.695 475.813,544.416C475.907,544.461 476.002,544.504 476.097,544.544C476.134,544.568 580.952,589.28 580.952,589.28C580.952,589.28 589.018,593.68 591.951,586.714C594.884,579.748 587.551,577.548 587.551,577.548C587.551,577.548 481.258,535.268 481.218,535.252C481.107,535.208 480.995,535.168 480.882,535.131C479.431,534.637 473.992,532.341 477.06,527.228C479.584,523.021 486.467,525.627 488.325,526.43C488.481,526.499 488.639,526.566 488.797,526.629C488.817,526.651 537.177,545.927 560.449,555.203C567.446,557.992 575.426,555.16 579.099,548.584C585.036,537.955 593.904,522.078 600.451,510.357C602.595,506.517 602.947,501.929 601.412,497.808C599.877,493.686 596.61,490.445 592.477,488.944C570.998,481.142 534.116,467.744 515.631,461.029C509.049,458.638 501.689,461.119 497.898,467.007C475.229,502.212 400.094,618.9 385.763,641.156C384.228,643.54 383.4,646.31 383.376,649.145C383.21,660.135 381.826,689.501 372.176,705.585C360.146,725.636 321.764,761.153 301.713,743.394C285.592,729.116 221.329,666.695 196.759,642.776C191.273,637.451 182.659,637.105 176.762,641.972C161.75,654.366 134.024,677.256 117.996,690.489C114.802,693.126 112.84,696.966 112.576,701.1C112.312,705.233 113.768,709.291 116.601,712.313C140.405,737.715 196.654,797.737 219.466,822.079C224.976,827.96 234.149,828.435 240.237,823.155C260.46,805.62 301.744,769.823 301.744,769.823C301.744,769.823 308.153,765.285 301.207,761.072C297.884,759.057 293.263,763.827 293.263,763.827L271.882,782.178C271.882,782.178 267.565,776.734 263.998,778.611C260.431,780.489 251.233,789.311 251.233,789.311C251.233,789.311 246.916,792.315 248.605,794.567C249.392,795.617 250.139,796.707 250.711,797.572C251.345,798.531 251.178,799.809 250.32,800.574C248.539,802.163 245.373,804.983 242.12,807.881C236.024,813.312 226.704,812.87 221.149,806.886C200.716,784.876 154.332,734.912 133.334,712.293C130.546,709.29 129.108,705.277 129.354,701.188C129.599,697.098 131.508,693.286 134.635,690.639C146.799,680.341 165.432,664.566 176.931,654.831C182.765,649.892 191.379,650.13 196.931,655.382C220.584,677.756 280.015,733.975 293.119,746.371C294.752,747.916 296.712,749.074 298.854,749.759C304.604,751.619 316.323,756.228 317.7,763.113C319.533,772.279 311.834,802.343 331.999,806.376C347.071,809.39 374.229,810.151 386.985,810.344C391.423,810.42 395.6,812.461 398.388,815.916C401.477,819.723 405.48,824.683 408.099,827.929C408.744,828.728 409.727,829.178 410.754,829.145C411.78,829.111 412.732,828.597 413.323,827.757C415.252,825.015 417.973,821.149 420.276,817.876C423.085,813.884 427.662,811.508 432.543,811.508L522.82,811.508C526.798,811.508 530.614,809.928 533.427,807.115C536.24,804.302 537.82,800.487 537.82,796.508L537.82,781.22" style="fill:none;stroke:rgb(11,11,11);stroke-width:2.08px;"/>
    </g>
</svg>
