<?xml version="1.0" encoding="UTF-8" standalone="no"?>
<!DOCTYPE svg PUBLIC "-//W3C//DTD SVG 1.1//EN" "http://www.w3.org/Graphics/SVG/1.1/DTD/svg11.dtd">
<svg width="100%" height="100%" viewBox="0 0 1973 196" version="1.1" xmlns="http://www.w3.org/2000/svg" xmlns:xlink="http://www.w3.org/1999/xlink" xml:space="preserve" xmlns:serif="http://www.serif.com/" style="fill-rule:evenodd;clip-rule:evenodd;stroke-linejoin:round;stroke-miterlimit:2;">
    <g transform="matrix(1,0,0,1,-5008.85,-2438.18)">
        <g transform="matrix(0.192142,0,-0.0168103,0.192142,5619.31,2112.86)">
            <circle cx="518.617" cy="1812.62" r="119.423" style="fill:rgb(248,164,57);"/>
        </g>
        <g transform="matrix(1,0,0,1,5008.85,2438.18)">
            <path d="M53.166,195.181C19.772,186.916 -2.902,156.16 0.303,119.523C3.509,82.886 31.565,52.13 66.404,43.865C66.405,43.865 66.406,43.864 66.407,43.864L66.407,43.865L108.407,43.866C123.525,43.918 137.498,49.949 147.26,60.65C157.065,71.396 161.828,85.972 160.498,101.17L125.453,101.17L127.658,75.964C128.402,67.469 125.74,59.322 120.258,53.315C115.225,47.801 108.195,44.505 100.503,44.002L100.508,43.934L97.212,43.934L97.21,43.957C89.134,44.263 81.179,47.596 74.959,53.315C68.53,59.227 64.47,67.21 63.634,75.559L61.357,101.582L160.462,101.582L159.443,113.229L60.338,113.229L58.095,138.876C55.667,169.967 78.769,195.081 109.929,195.081L109.92,195.184L53.166,195.184L53.166,195.181ZM42.534,58.506C40.561,59.76 38.641,61.097 36.779,62.512L26.803,176.533C28.418,177.949 30.104,179.286 31.858,180.54L42.534,58.506ZM52.777,52.974C50.857,53.841 48.972,54.782 47.125,55.795L35.974,183.251C37.643,184.264 39.363,185.205 41.132,186.072L52.777,52.974ZM32.09,66.352C30.03,68.164 28.057,70.081 26.183,72.087L17.883,166.959C19.407,168.964 21.044,170.881 22.786,172.694L32.09,66.352ZM45.321,187.947C46.632,188.485 47.965,188.976 49.319,189.431L61.551,49.615C60.118,50.07 58.699,50.566 57.294,51.099L45.321,187.947ZM9.821,97.814C7.099,104.672 5.317,111.964 4.656,119.523C3.995,127.082 4.5,134.374 6.023,141.232L9.821,97.814ZM21.333,77.765C19.066,80.675 16.99,83.731 15.127,86.922L9.444,151.883L9.325,151.883C10.649,155.158 12.223,158.298 14.027,161.28L21.333,77.765ZM750.469,65.722C725.842,65.722 704.049,85.12 700.8,109.468L697.556,146.56C695.339,171.904 672.995,192.448 647.65,192.448L575.977,192.448C612.328,192.448 644.375,162.978 647.556,126.626L647.62,126.626L648.933,111.61C651.151,86.266 673.495,65.716 698.84,65.716L750.47,65.716L756.219,0.005C765.469,0.005 774.187,2.802 781.286,7.916L781.406,7.916L781.398,8.001C783.598,9.599 785.64,11.42 787.493,13.45C795.347,22.055 799.16,33.732 798.096,45.899L785.034,195.185C772.864,195.185 761.614,190.345 753.76,181.74C745.907,173.135 742.093,161.465 743.158,149.291L750.469,65.722ZM789.954,27.818L775.893,188.538C777.265,188.885 778.665,189.16 780.088,189.35L792.639,45.899C793.193,39.566 792.247,33.384 789.954,27.818ZM756.42,175.892L756.268,175.892C756.805,176.573 757.368,177.235 757.957,177.883C758.865,178.878 759.825,179.815 760.832,180.692L775.678,11.001C774.201,10.09 772.657,9.285 771.057,8.591L756.42,175.892ZM780.801,14.832L765.963,184.425C767.443,185.316 768.99,186.095 770.59,186.77L785.215,19.599C784.61,18.807 783.97,18.047 783.297,17.307C782.504,16.436 781.67,15.611 780.801,14.832ZM765.76,6.757C764.261,6.358 762.727,6.056 761.166,5.84L748.616,149.291C748.035,155.932 749.1,162.402 751.639,168.165L765.76,6.757ZM303.267,193.972L295.537,193.972C292.639,193.972 290.543,193.086 289.248,191.315C289.115,190.993 287.627,185.92 284.783,176.098L265.136,113.54L243.069,158.707L225.974,193.972L218.245,193.972C215.347,193.972 213.25,193.086 211.956,191.315C211.823,190.993 210.335,185.92 207.491,176.098L179.519,87.212C177.003,79.161 174.52,74.41 172.071,72.961C169.943,71.512 166.142,70.787 160.667,70.787L160.878,68.372L206.771,68.372C212.246,68.372 216.636,74.33 219.941,86.246L241.937,155.084L264.245,109.916L257.053,87.212C255.306,81.415 253.712,77.55 252.271,75.618C249.815,72.398 245.044,70.787 237.959,70.787L238.171,68.372L313.047,68.372L312.836,70.787C302.531,70.787 297.145,73.444 296.68,78.758C296.455,81.334 296.72,83.83 297.475,86.246L319.229,155.084L353.028,86.246C354.395,83.508 355.184,80.932 355.395,78.517C355.846,73.364 351.321,70.787 341.821,70.787L342.032,68.372L373.432,68.372L373.221,70.787C366.283,70.948 360.329,76.423 355.359,87.212L320.361,158.707L303.267,193.972ZM507.362,193.972L459.055,193.972C457.445,193.972 455.786,192.684 454.079,190.107C452.372,187.531 451.358,186.242 451.036,186.242C442.302,192.2 432.058,195.179 420.303,195.179C399.853,195.179 383.87,190.59 372.355,181.412C360.839,172.233 355.582,161.928 356.582,150.495C357.582,139.062 364.585,128.958 377.591,120.182C390.596,111.406 407.405,107.018 428.016,107.018C438,107.018 447.485,109.031 456.472,113.056L457.001,107.018C459.184,82.059 449.81,69.58 428.876,69.58C415.511,69.58 402.407,73.042 389.563,79.966L388.304,77.792C401.806,70.707 415.4,67.164 429.088,67.164C475.785,67.164 497.267,88.5 493.534,131.172L489.73,174.649C488.744,185.92 494.692,191.556 507.574,191.556L507.362,193.972ZM456.24,115.713C447.428,111.527 437.949,109.433 427.805,109.433C415.889,109.433 407.121,113.942 401.502,122.96C398.545,127.307 396.454,136.486 395.228,150.495C393.735,167.564 394.856,178.674 398.592,183.827C403.062,189.785 410.37,192.764 420.514,192.764C432.752,192.764 442.843,189.705 450.785,183.586C451.336,173.602 452.014,164.021 452.817,154.843L456.24,115.713ZM881.161,195.179C859.423,195.179 843.162,189.624 832.379,178.513C821.757,167.403 817.341,151.622 819.13,131.172C820.905,110.883 828.163,95.102 840.904,83.83C853.631,72.72 870.784,67.164 892.361,67.164C913.938,67.164 930.118,72.72 940.901,83.83C951.67,95.102 956.167,110.883 954.392,131.172L857.776,131.172C855.283,159.673 855.449,176.178 858.275,180.687C863.529,188.738 871.228,192.764 881.372,192.764C893.449,192.764 905.062,189.785 916.211,183.827C927.36,177.869 936.497,170.059 943.622,160.398L945.449,161.606C938.121,171.75 928.714,179.882 917.229,186.001C905.744,192.12 893.721,195.179 881.161,195.179ZM857.988,128.756L915.957,128.756C918.098,104.281 918.187,89.466 916.222,84.313C912.573,74.491 904.549,69.58 892.15,69.58C879.912,69.58 871.662,73.686 867.401,81.898C863.112,90.432 859.974,106.052 857.988,128.756ZM1025.84,195.179C1004.1,195.179 987.924,189.624 977.302,178.513C966.68,167.403 962.264,151.622 964.053,131.172C965.828,110.883 973.086,95.102 985.827,83.83C998.554,72.72 1015.71,67.164 1037.28,67.164C1044.37,67.164 1052.25,68.654 1060.93,71.633C1069.6,74.612 1077.12,78.839 1083.49,84.313C1089.85,89.788 1092.78,95.424 1092.27,101.221C1091.78,106.857 1089.44,111.567 1085.24,115.351C1081.05,119.135 1076.29,121.027 1070.98,121.027C1065.5,121.027 1061.13,119.014 1057.86,114.989C1054.59,110.963 1053.16,106.535 1053.59,101.704C1053.84,98.806 1055,95.625 1057.08,92.163C1059.15,88.701 1060.32,85.441 1060.59,82.381C1060.84,79.483 1058.4,76.624 1053.25,73.807C1048.1,70.989 1042.71,69.58 1037.07,69.58C1023.22,69.58 1014.31,74.893 1010.32,85.521C1007.15,94.055 1004.62,109.272 1002.7,131.172C1000.46,156.775 1000.32,172.233 1002.26,177.547C1005.89,187.692 1013.82,192.764 1026.05,192.764C1037.97,192.764 1049.09,189.866 1059.42,184.069C1069.75,178.272 1078.57,170.381 1085.89,160.398L1087.71,161.606C1080.21,171.911 1071.12,180.083 1060.45,186.122C1049.78,192.16 1038.24,195.179 1025.84,195.179ZM1120.73,29.726C1121.72,18.454 1115.77,12.818 1102.89,12.818L1103.1,10.403L1151.41,10.403C1157.85,10.403 1160.51,16.844 1159.38,29.726L1155.41,75.135C1163.92,69.821 1172.21,67.164 1180.26,67.164C1222.12,67.164 1241.75,82.059 1239.15,111.849L1233.65,174.649C1232.67,185.92 1238.62,191.556 1251.5,191.556L1251.29,193.972L1173.99,193.972L1174.2,191.556C1187.09,191.556 1194.02,185.92 1195.01,174.649L1200.29,114.264C1202.9,84.474 1196.15,69.58 1180.05,69.58C1171.83,69.58 1163.53,72.478 1155.13,78.275L1146.7,174.649C1145.71,185.92 1151.66,191.556 1164.54,191.556L1164.33,193.972L1087.04,193.972L1087.25,191.556C1100.13,191.556 1107.07,185.92 1108.05,174.649L1120.73,29.726ZM1368.71,69.58L1371.12,69.58L1370.32,103.636L1367.9,103.636C1367.78,97.598 1365.66,91.076 1361.52,84.072C1359.06,79.966 1354.89,76.524 1349.02,73.746C1343.14,70.968 1336.02,69.58 1327.64,69.58C1320.08,69.58 1313.9,71.552 1309.13,75.497C1304.36,79.442 1301.78,83.589 1301.4,87.936C1300.92,93.411 1302.41,97.518 1305.88,100.255C1309.04,102.831 1313.3,105.569 1318.69,108.467L1353.44,125.375C1367.87,133.426 1374.52,143.893 1373.4,156.775C1371.16,182.378 1350.71,195.179 1312.07,195.179C1306.03,195.179 1300.38,194.374 1295.13,192.764C1287.92,190.51 1281.62,187.048 1276.23,182.378C1274.36,180.768 1272.42,179.963 1270.4,179.963C1266.38,179.963 1263.97,184.471 1263.18,193.489L1260.77,193.489L1264.99,156.292L1267.4,156.292C1267.19,158.707 1267.81,161.767 1269.26,165.47C1273.41,176.017 1280.35,183.586 1290.1,188.175C1296.59,191.234 1303.99,192.764 1312.28,192.764C1328.7,192.764 1337.45,186.645 1338.52,174.407C1339.28,165.712 1335.05,158.868 1325.83,153.876L1293.12,138.418C1285.08,134.634 1279.09,129.884 1275.16,124.167C1271.53,118.773 1270.03,112.493 1270.65,105.327C1271.7,93.411 1277.46,84.072 1287.96,77.309C1298.29,70.546 1311.59,67.164 1327.86,67.164C1335.59,67.164 1342.14,68.211 1347.51,70.304C1352.49,72.317 1357.09,73.323 1361.31,73.323C1365.54,73.323 1368,72.075 1368.71,69.58ZM1447.1,87.695L1439.5,174.649C1438.51,185.92 1444.46,191.556 1457.34,191.556L1457.13,193.972L1379.84,193.972L1380.05,191.556C1392.93,191.556 1399.86,185.92 1400.85,174.649L1408.46,87.695C1409.44,76.423 1403.5,70.787 1390.61,70.787L1390.82,68.372L1439.13,68.372C1440.58,68.372 1442.2,69.62 1444,72.116C1445.79,74.612 1446.85,75.86 1447.17,75.86C1456.37,70.063 1465,67.164 1473.05,67.164C1498.33,67.164 1515.57,72.639 1524.75,83.589C1527.92,80.529 1531.04,77.953 1534.13,75.86C1543.33,70.063 1551.95,67.164 1560.01,67.164C1601.87,67.164 1621.5,82.059 1618.9,111.849L1613.4,174.649C1612.42,185.92 1618.36,191.556 1631.25,191.556L1631.04,193.972L1553.74,193.972L1553.95,191.556C1566.84,191.556 1573.77,185.92 1574.76,174.649L1580.04,114.264C1582.65,84.474 1575.9,69.58 1559.8,69.58C1551.42,69.58 1542.95,72.559 1534.38,78.517C1530.94,80.932 1528.24,83.347 1526.26,85.763C1530.98,92.526 1532.87,101.221 1531.94,111.849L1526.45,174.649C1525.46,185.92 1531.41,191.556 1544.29,191.556L1544.08,193.972L1466.79,193.972L1467,191.556C1479.88,191.556 1486.82,185.92 1487.8,174.649L1493.09,114.264C1495.69,84.474 1488.94,69.58 1472.84,69.58C1464.47,69.58 1456,72.559 1447.42,78.517C1447.49,81.415 1447.38,84.474 1447.1,87.695ZM1788.04,193.972L1739.73,193.972C1738.12,193.972 1736.46,192.684 1734.75,190.107C1733.05,187.531 1732.03,186.242 1731.71,186.242C1722.98,192.2 1712.73,195.179 1700.98,195.179C1680.53,195.179 1664.55,190.59 1653.03,181.412C1641.51,172.233 1636.26,161.928 1637.26,150.495C1638.26,139.062 1645.26,128.958 1658.27,120.182C1671.27,111.406 1688.08,107.018 1708.69,107.018C1718.67,107.018 1728.16,109.031 1737.15,113.056L1737.67,107.018C1739.86,82.059 1730.48,69.58 1709.55,69.58C1696.19,69.58 1683.08,73.042 1670.24,79.966L1668.98,77.792C1682.48,70.707 1696.08,67.164 1709.76,67.164C1756.46,67.164 1777.94,88.5 1774.21,131.172L1770.4,174.649C1769.42,185.92 1775.37,191.556 1788.25,191.556L1788.04,193.972ZM1736.91,115.713C1728.1,111.527 1718.62,109.433 1708.48,109.433C1696.56,109.433 1687.8,113.942 1682.18,122.96C1679.22,127.307 1677.13,136.486 1675.9,150.495C1674.41,167.564 1675.53,178.674 1679.27,183.827C1683.74,189.785 1691.04,192.764 1701.19,192.764C1713.43,192.764 1723.52,189.705 1731.46,183.586C1732.01,173.602 1732.69,164.021 1733.49,154.843L1736.91,115.713ZM1864.7,87.695L1857.1,174.649C1856.11,185.92 1862.06,191.556 1874.94,191.556L1874.73,193.972L1797.44,193.972L1797.65,191.556C1810.53,191.556 1817.46,185.92 1818.45,174.649L1826.06,87.695C1827.04,76.423 1821.1,70.787 1808.21,70.787L1808.42,68.372L1856.73,68.372C1858.18,68.372 1859.8,69.62 1861.6,72.116C1863.39,74.612 1864.45,75.86 1864.77,75.86C1873.98,70.063 1882.6,67.164 1890.65,67.164C1932.52,67.164 1952.15,82.059 1949.54,111.849L1944.05,174.649C1943.06,185.92 1949.01,191.556 1961.89,191.556L1961.68,193.972L1884.39,193.972L1884.6,191.556C1897.48,191.556 1904.42,185.92 1905.4,174.649L1910.69,114.264C1913.29,84.474 1906.54,69.58 1890.44,69.58C1882.07,69.58 1873.6,72.559 1865.02,78.517C1865.09,81.415 1864.99,84.474 1864.7,87.695Z"/>
        </g>
    </g>
</svg>
