<?xml version="1.0" encoding="UTF-8" standalone="no"?>
<!DOCTYPE svg PUBLIC "-//W3C//DTD SVG 1.1//EN" "http://www.w3.org/Graphics/SVG/1.1/DTD/svg11.dtd">
<svg width="100%" height="100%" viewBox="0 0 1973 196" version="1.1" xmlns="http://www.w3.org/2000/svg" xmlns:xlink="http://www.w3.org/1999/xlink" xml:space="preserve" xmlns:serif="http://www.serif.com/" style="fill-rule:evenodd;clip-rule:evenodd;stroke-linejoin:round;stroke-miterlimit:2;">
    <g transform="matrix(1,0,0,1,-7908.07,-2778.57)">
        <g transform="matrix(0.923991,0,0,1,836.513,836.287)">
            <g transform="matrix(1.08226,0,0,1,6970.61,1472.63)">
                <g transform="matrix(0.522361,0,-0.0457006,0.522361,578.767,-382.567)">
                    <g transform="matrix(1,0,0,1,-4230.57,1134.92)">
                        <path d="M4715.97,870.018C4655.97,870.018 4607.32,821.377 4607.32,761.377C4607.32,761.377 4607.32,761.377 4607.32,761.377L4607.32,870.215L4715.97,870.215C4715.97,870.215 4715.97,870.148 4715.97,870.018ZM4797.05,713.321L4607.32,713.321L4607.32,691.025L4797.05,691.025L4797.05,713.321ZM4607.32,641.982L4607.32,580.533L4687.73,580.533L4687.73,580.534C4716.68,580.633 4744.44,592.179 4764.92,612.664C4785.49,633.237 4797.05,661.14 4797.05,690.234L4797.05,690.235L4729.96,690.235L4729.96,641.982C4729.96,625.719 4723.5,610.123 4712,598.623C4701.44,588.066 4687.43,581.756 4672.62,580.793L4672.62,580.664L4666.31,580.664L4666.31,580.708C4650.9,581.293 4636.23,587.674 4625.28,598.623C4613.78,610.123 4607.32,625.719 4607.32,641.982Z" style="fill:white;"/>
                    </g>
                    <g transform="matrix(1,0,0,1,-41.5791,0)">
                        <path d="M418.334,1715.45L418.334,2005.13C353.019,1989.31 304.458,1930.43 304.458,1860.29C304.458,1790.15 353.019,1731.27 418.334,1715.45ZM402.1,1991.28L402.1,1729.3C404.7,1728.28 407.333,1727.33 410.001,1726.46L410.001,1726.46L410.001,1994.12C407.333,1993.25 404.7,1992.31 402.1,1991.28ZM393.766,1732.89L393.766,1987.69C390.235,1986.03 386.784,1984.23 383.419,1982.29L383.419,1738.29C386.786,1736.35 390.236,1734.55 393.766,1732.89ZM375.085,1743.48L375.085,1977.1C371.518,1974.7 368.065,1972.14 364.738,1969.43L364.738,1751.15C368.065,1748.44 371.517,1745.88 375.085,1743.48ZM356.404,1758.5L356.404,1962.08C352.765,1958.61 349.31,1954.94 346.057,1951.1L346.057,1769.48C349.309,1765.64 352.764,1761.97 356.404,1758.5ZM337.724,1780.35L337.724,1940.23C333.771,1934.52 330.233,1928.51 327.148,1922.24L327.376,1922.24L327.376,1797.88C330.408,1791.77 333.87,1785.92 337.724,1780.35ZM319.043,1818.73L319.043,1901.85C314.98,1888.72 312.791,1874.76 312.791,1860.29C312.791,1845.82 314.98,1831.86 319.043,1818.73Z" style="fill:white;"/>
                    </g>
                </g>
                <g transform="matrix(0.654877,0,-0.0572943,0.654877,1008.64,-651.013)">
                    <g>
                        <g transform="matrix(0.293402,0,0,0.293402,461.41,1214.49)">
                            <circle cx="518.617" cy="1812.62" r="119.423" style="fill:rgb(248,164,57);"/>
                        </g>
                        <path d="M578.534,1904.62L578.534,1881.69C578.534,1842.99 609.908,1811.61 648.61,1811.61L727.449,1811.61L727.449,1811.62C689.843,1811.62 659.155,1841.24 657.448,1878.42L657.45,1878.42L657.45,1935.06C657.45,1973.76 626.076,2005.13 587.374,2005.13L477.928,2005.13L477.928,2005.13C533.437,2005.13 578.436,1960.13 578.436,1904.62C578.501,1904.62 578.534,1904.62 578.534,1904.62Z" style="fill:white;"/>
                    </g>
                    <path d="M766.967,1723.48L766.967,1723.35L766.784,1723.35C755.261,1715.54 741.576,1711.27 727.451,1711.27L727.449,1711.27L727.449,1939.23C727.449,1957.82 734.832,1975.64 747.974,1988.78C761.116,2001.92 778.94,2009.31 797.525,2009.31L797.527,2009.31L797.527,1781.35C797.527,1762.77 790.144,1744.94 777.002,1731.8C773.901,1728.7 770.539,1725.92 766.967,1723.48ZM782.679,1753.74C786.924,1762.24 789.194,1771.68 789.194,1781.35L789.194,2000.4C786.995,2000.11 784.821,1999.69 782.679,1999.16L782.679,1753.74ZM766.967,1733.91C768.399,1735.1 769.782,1736.36 771.11,1737.69C772.236,1738.82 773.315,1739.98 774.345,1741.19L774.345,1996.46C771.811,1995.43 769.346,1994.24 766.967,1992.88L766.967,1733.91ZM751.254,1979.85L751.254,1724.38C753.79,1725.44 756.255,1726.67 758.633,1728.06L758.633,1987.18C756.978,1985.84 755.387,1984.41 753.867,1982.89C752.881,1981.9 751.933,1980.89 751.022,1979.85L751.254,1979.85ZM742.921,1721.58L742.921,1968.05C738.275,1959.25 735.783,1949.37 735.783,1939.23L735.783,1720.18C738.195,1720.51 740.579,1720.97 742.921,1721.58Z" style="fill:white;"/>
                </g>
                <g transform="matrix(4.9467,0,-0.43278,4.9467,-26804.3,-3859.43)">
                    <g transform="matrix(50,0,0,50,5729.63,914.358)">
                    </g>
                    <text x="5656.92px" y="914.358px" style="font-family:'spinweradBold', 'spinwerad';font-weight:700;font-stretch:expanded;font-size:50px;fill:white;">w<tspan x="5696.47px " y="914.358px ">a</tspan></text>
                </g>
                <g transform="matrix(4.9467,0,-0.43278,4.9467,-26147.8,-3859.43)">
                    <g transform="matrix(50,0,0,50,5890.96,914.358)">
                    </g>
                    <text x="5656.92px" y="914.358px" style="font-family:'spinweradBold', 'spinwerad';font-weight:700;font-stretch:expanded;font-size:50px;fill:white;">ec<tspan x="5712.19px 5747.35px 5771.38px 5822.65px 5855.8px " y="914.358px 914.358px 914.358px 914.358px 914.358px ">hsman</tspan></text>
                </g>
            </g>
        </g>
    </g>
</svg>
