<?xml version="1.0" encoding="UTF-8" standalone="no"?>
<!DOCTYPE svg PUBLIC "-//W3C//DTD SVG 1.1//EN" "http://www.w3.org/Graphics/SVG/1.1/DTD/svg11.dtd">
<svg width="100%" height="100%" viewBox="0 0 1973 196" version="1.1" xmlns="http://www.w3.org/2000/svg" xmlns:xlink="http://www.w3.org/1999/xlink" xml:space="preserve" xmlns:serif="http://www.serif.com/" style="fill-rule:evenodd;clip-rule:evenodd;stroke-linejoin:round;stroke-miterlimit:2;">
    <g transform="matrix(10.3392,-9.13901e-32,3.86193e-32,10.3392,-120240,-90971.7)">
        <g>
            <path d="M11631.8,8817.28L11631.8,8817.02L11632.4,8816.78C11632.7,8816.66 11632.9,8816.49 11633,8816.29C11633.1,8816.09 11633.2,8815.81 11633.2,8815.45L11633.2,8801.63C11633.2,8801.28 11633.1,8801 11633,8800.8C11632.9,8800.6 11632.7,8800.43 11632.4,8800.31L11631.8,8800.07L11631.8,8799.81L11644.5,8799.81L11644.6,8803.88L11644.3,8803.88L11643.2,8801.4C11643.1,8801.08 11642.9,8800.82 11642.7,8800.63C11642.5,8800.43 11642.3,8800.34 11641.9,8800.34L11637.1,8800.34L11637.1,8807.99L11640,8807.99C11640.3,8807.99 11640.6,8807.9 11640.8,8807.71C11641,8807.52 11641.1,8807.27 11641.3,8806.96L11641.8,8805.9L11642.1,8805.9L11642.1,8810.66L11641.8,8810.66L11641.3,8809.55C11641.1,8809.23 11641,8808.98 11640.8,8808.8C11640.6,8808.61 11640.3,8808.52 11640,8808.52L11637.1,8808.52L11637.1,8816.75L11642.5,8816.75C11642.8,8816.75 11643.1,8816.66 11643.3,8816.47C11643.5,8816.29 11643.7,8816.03 11643.8,8815.69L11644.9,8813.2L11645.1,8813.2L11645,8817.28L11631.8,8817.28Z" style="fill:white;fill-rule:nonzero;"/>
            <path d="M11651.4,8817.36L11647.3,8806.16C11647.1,8805.6 11646.8,8805.2 11646.2,8804.97L11645.7,8804.81L11645.7,8804.55L11652.2,8804.55L11652.2,8804.81L11651.8,8804.92C11651.1,8805.13 11650.9,8805.55 11651.1,8806.19L11653.6,8813.68L11655.8,8807.86L11655.3,8806.35C11655.2,8805.96 11655,8805.66 11654.9,8805.46C11654.8,8805.26 11654.6,8805.11 11654.4,8805.02L11653.9,8804.81L11653.9,8804.55L11659.4,8804.55L11659.4,8804.81L11659,8804.97C11658.8,8805.08 11658.6,8805.22 11658.6,8805.39C11658.5,8805.57 11658.5,8805.84 11658.7,8806.19L11661.1,8813.55L11663.6,8806.24C11663.9,8805.57 11663.7,8805.15 11663.2,8804.97L11662.6,8804.81L11662.6,8804.55L11665.8,8804.55L11665.8,8804.81L11665.2,8805C11664.9,8805.09 11664.7,8805.22 11664.5,8805.41C11664.4,8805.59 11664.3,8805.84 11664.2,8806.16L11660.4,8817.36L11659,8817.36L11656.1,8808.7L11653,8817.36L11651.4,8817.36Z" style="fill:white;fill-rule:nonzero;"/>
            <path d="M11670.3,8817.68C11669.3,8817.68 11668.4,8817.39 11667.7,8816.81C11667,8816.22 11666.7,8815.38 11666.7,8814.29C11666.7,8813.46 11667.1,8812.7 11668,8812C11668.8,8811.3 11670.1,8810.78 11672,8810.42C11672.2,8810.37 11672.6,8810.31 11672.9,8810.25C11673.3,8810.19 11673.6,8810.12 11674,8810.05L11674,8807.96C11674,8806.76 11673.9,8805.92 11673.6,8805.43C11673.3,8804.95 11672.8,8804.7 11672.2,8804.7C11671.8,8804.7 11671.5,8804.84 11671.2,8805.12C11671,8805.39 11670.8,8805.86 11670.7,8806.53L11670.7,8806.82C11670.7,8807.58 11670.5,8808.14 11670.1,8808.49C11669.8,8808.84 11669.4,8809.02 11668.9,8809.02C11668.4,8809.02 11668.1,8808.88 11667.8,8808.6C11667.5,8808.32 11667.3,8807.93 11667.3,8807.46C11667.3,8806.74 11667.6,8806.13 11668.1,8805.63C11668.6,8805.14 11669.2,8804.77 11670.1,8804.52C11670.9,8804.27 11671.8,8804.15 11672.8,8804.15C11674.3,8804.15 11675.5,8804.53 11676.4,8805.3C11677.3,8806.07 11677.7,8807.32 11677.7,8809.05L11677.7,8814.9C11677.7,8815.69 11678.1,8816.09 11678.8,8816.09L11679.4,8816.09L11679.6,8816.3C11679.3,8816.73 11678.9,8817.05 11678.5,8817.28C11678.1,8817.51 11677.6,8817.63 11676.8,8817.63C11676.1,8817.63 11675.4,8817.44 11675,8817.08C11674.5,8816.72 11674.2,8816.24 11674.1,8815.64C11673.6,8816.2 11673,8816.69 11672.5,8817.08C11671.9,8817.48 11671.2,8817.68 11670.3,8817.68ZM11671.9,8816.06C11672.3,8816.06 11672.6,8815.98 11672.9,8815.81C11673.2,8815.64 11673.6,8815.38 11674,8815.03L11674,8810.58C11673.9,8810.62 11673.7,8810.65 11673.5,8810.69C11673.3,8810.72 11673.1,8810.76 11672.9,8810.8C11672.1,8811.01 11671.4,8811.36 11670.9,8811.87C11670.5,8812.37 11670.2,8813.05 11670.2,8813.89C11670.2,8814.62 11670.4,8815.16 11670.7,8815.52C11671.1,8815.88 11671.5,8816.06 11671.9,8816.06Z" style="fill:white;fill-rule:nonzero;"/>
            <path d="M11685.7,8811.81C11685,8811.81 11684.3,8811.62 11683.6,8811.25C11683,8810.88 11682.5,8810.38 11682.2,8809.75C11681.8,8809.13 11681.6,8808.44 11681.6,8807.68C11681.6,8806.92 11681.8,8806.23 11682.2,8805.6C11682.5,8804.98 11683,8804.48 11683.6,8804.11C11684.3,8803.74 11685,8803.55 11685.7,8803.55C11686.5,8803.55 11687.2,8803.74 11687.8,8804.11C11688.4,8804.48 11688.9,8804.98 11689.3,8805.6C11689.7,8806.23 11689.8,8806.92 11689.8,8807.68C11689.8,8808.44 11689.7,8809.13 11689.3,8809.75C11688.9,8810.38 11688.4,8810.88 11687.8,8811.25C11687.2,8811.62 11686.5,8811.81 11685.7,8811.81Z" style="fill:rgb(0,137,130);fill-rule:nonzero;"/>
            <path d="M11693.2,8817.28L11693.2,8817.02L11693.7,8816.81C11694,8816.68 11694.3,8816.51 11694.4,8816.3C11694.5,8816.09 11694.6,8815.82 11694.6,8815.48L11694.6,8801.63C11694.6,8801.28 11694.5,8801 11694.4,8800.79C11694.3,8800.58 11694,8800.41 11693.7,8800.28L11693.2,8800.07L11693.2,8799.81L11699.9,8799.81L11699.9,8800.07L11699.4,8800.26C11699.1,8800.38 11698.9,8800.54 11698.7,8800.75C11698.6,8800.95 11698.6,8801.23 11698.6,8801.58L11698.6,8808.01L11704.9,8808.01L11704.9,8801.58C11704.9,8801.23 11704.8,8800.95 11704.7,8800.75C11704.6,8800.54 11704.4,8800.38 11704,8800.26L11703.5,8800.07L11703.5,8799.81L11710.3,8799.81L11710.3,8800.07L11709.8,8800.28C11709.4,8800.41 11709.2,8800.58 11709.1,8800.79C11708.9,8801 11708.9,8801.28 11708.9,8801.63L11708.9,8815.48C11708.9,8815.82 11708.9,8816.09 11709.1,8816.3C11709.2,8816.51 11709.4,8816.68 11709.8,8816.81L11710.3,8817.02L11710.3,8817.28L11703.5,8817.28L11703.5,8817.02L11704,8816.86C11704.4,8816.72 11704.6,8816.55 11704.7,8816.34C11704.8,8816.14 11704.9,8815.86 11704.9,8815.51L11704.9,8808.54L11698.6,8808.54L11698.6,8815.51C11698.6,8816.16 11698.8,8816.61 11699.4,8816.86L11699.9,8817.02L11699.9,8817.28L11693.2,8817.28Z" style="fill:white;fill-rule:nonzero;"/>
            <path d="M11717.8,8804.15C11718.9,8804.15 11719.9,8804.38 11720.7,8804.85C11721.5,8805.32 11722.1,8805.95 11722.6,8806.76C11723,8807.56 11723.2,8808.47 11723.2,8809.5C11723.2,8809.69 11723.2,8809.89 11723.2,8810.09C11723.2,8810.3 11723.1,8810.48 11723.1,8810.64L11715.2,8810.64C11715.2,8812.54 11715.5,8813.92 11716.2,8814.75C11716.9,8815.59 11717.8,8816.01 11719.2,8816.01C11720,8816.01 11720.8,8815.87 11721.3,8815.59C11721.8,8815.31 11722.4,8814.89 11722.8,8814.34L11723.1,8814.58C11722.6,8815.55 11721.8,8816.31 11720.9,8816.86C11720,8817.41 11718.9,8817.68 11717.6,8817.68C11716.4,8817.68 11715.3,8817.41 11714.3,8816.87C11713.3,8816.33 11712.6,8815.56 11712,8814.55C11711.5,8813.55 11711.2,8812.35 11711.2,8810.95C11711.2,8809.51 11711.5,8808.27 11712.2,8807.26C11712.8,8806.25 11713.6,8805.47 11714.6,8804.94C11715.6,8804.41 11716.7,8804.15 11717.8,8804.15ZM11717.7,8804.68C11717.2,8804.68 11716.7,8804.83 11716.4,8805.14C11716,8805.45 11715.7,8806 11715.5,8806.78C11715.3,8807.57 11715.2,8808.68 11715.2,8810.11L11719.7,8810.11C11719.9,8808.18 11719.8,8806.8 11719.5,8805.95C11719.2,8805.1 11718.6,8804.68 11717.7,8804.68Z" style="fill:white;fill-rule:nonzero;"/>
            <path d="M11731.5,8817.68C11730.3,8817.68 11729.2,8817.42 11728.2,8816.9C11727.2,8816.38 11726.5,8815.62 11725.9,8814.62C11725.3,8813.62 11725,8812.4 11725,8810.95C11725,8809.52 11725.3,8808.3 11726,8807.29C11726.6,8806.27 11727.4,8805.5 11728.5,8804.96C11729.5,8804.42 11730.7,8804.15 11731.9,8804.15C11733,8804.15 11733.8,8804.32 11734.5,8804.65C11735.2,8804.99 11735.8,8805.43 11736.2,8805.96C11736.5,8806.5 11736.7,8807.06 11736.7,8807.64C11736.7,8808.14 11736.6,8808.52 11736.3,8808.8C11736,8809.07 11735.6,8809.21 11735.1,8809.21C11734.6,8809.21 11734.2,8809.02 11733.9,8808.65C11733.5,8808.28 11733.3,8807.79 11733.3,8807.19C11733.3,8806.81 11733.3,8806.48 11733.3,8806.2C11733.4,8805.93 11733.4,8805.65 11733.3,8805.37C11733.2,8805.07 11733.1,8804.87 11733,8804.77C11732.8,8804.67 11732.6,8804.63 11732.4,8804.63C11731.3,8804.63 11730.5,8805.09 11729.9,8806.03C11729.3,8806.97 11729,8808.46 11729,8810.5C11729,8812.29 11729.3,8813.65 11730,8814.59C11730.6,8815.54 11731.7,8816.01 11733,8816.01C11733.9,8816.01 11734.5,8815.86 11735,8815.56C11735.6,8815.26 11736,8814.81 11736.5,8814.21L11736.8,8814.42C11736.3,8815.46 11735.7,8816.27 11734.8,8816.83C11733.8,8817.4 11732.7,8817.68 11731.5,8817.68Z" style="fill:white;fill-rule:nonzero;"/>
            <path d="M11737.9,8817.28L11737.9,8817.02L11738.2,8816.91C11738.9,8816.7 11739.2,8816.26 11739.2,8815.59L11739.2,8801.45C11739.2,8801.08 11739.1,8800.8 11739,8800.63C11738.9,8800.45 11738.7,8800.32 11738.3,8800.23L11737.9,8800.12L11737.9,8799.86L11742.6,8798.72L11743,8798.96L11742.9,8802.69L11742.9,8806C11743.5,8805.49 11744.2,8805.05 11744.9,8804.69C11745.6,8804.33 11746.4,8804.15 11747.2,8804.15C11748.4,8804.15 11749.3,8804.48 11750,8805.13C11750.7,8805.78 11751,8806.79 11751,8808.15L11751,8815.61C11751,8815.97 11751.1,8816.25 11751.2,8816.46C11751.4,8816.67 11751.6,8816.83 11752,8816.94L11752.2,8817.02L11752.2,8817.28L11746,8817.28L11746,8817.02L11746.3,8816.94C11746.9,8816.73 11747.2,8816.27 11747.2,8815.59L11747.2,8807.27C11747.2,8806.57 11747.1,8806.08 11746.9,8805.82C11746.7,8805.55 11746.2,8805.42 11745.6,8805.42C11745.2,8805.42 11744.8,8805.5 11744.4,8805.65C11743.9,8805.8 11743.4,8806.06 11743,8806.43L11743,8815.64C11743,8816.33 11743.3,8816.77 11743.9,8816.96L11744.1,8817.02L11744.1,8817.28L11737.9,8817.28Z" style="fill:white;fill-rule:nonzero;"/>
            <path d="M11758.2,8817.68C11757.3,8817.68 11756.5,8817.58 11755.9,8817.37C11755.2,8817.17 11754.5,8816.92 11753.9,8816.62L11754,8813.47L11754.2,8813.47L11755.1,8815.06C11755.5,8815.76 11756,8816.29 11756.4,8816.63C11756.9,8816.98 11757.5,8817.15 11758.2,8817.15C11759.1,8817.15 11759.7,8816.96 11760.3,8816.58C11760.8,8816.2 11761,8815.69 11761,8815.06C11761,8814.48 11760.9,8814 11760.5,8813.63C11760.1,8813.26 11759.4,8812.92 11758.4,8812.62L11757.3,8812.28C11756.2,8811.96 11755.4,8811.47 11754.8,8810.8C11754.1,8810.12 11753.8,8809.3 11753.8,8808.33C11753.8,8807.17 11754.3,8806.18 11755.2,8805.37C11756.1,8804.56 11757.4,8804.15 11759.2,8804.15C11759.8,8804.15 11760.5,8804.22 11761.1,8804.37C11761.7,8804.52 11762.3,8804.75 11762.9,8805.05L11762.7,8807.91L11762.4,8807.91L11761.5,8806.27C11761.2,8805.68 11760.9,8805.27 11760.5,8805.04C11760.2,8804.8 11759.7,8804.68 11759.1,8804.68C11758.5,8804.68 11757.9,8804.85 11757.4,8805.18C11756.8,8805.52 11756.6,8805.99 11756.6,8806.61C11756.6,8807.21 11756.8,8807.69 11757.2,8808.04C11757.7,8808.39 11758.4,8808.72 11759.2,8809.02L11760.4,8809.36C11761.7,8809.75 11762.6,8810.29 11763.2,8810.97C11763.7,8811.65 11764,8812.46 11764,8813.42C11764,8814.7 11763.5,8815.74 11762.5,8816.51C11761.4,8817.29 11760,8817.68 11758.2,8817.68Z" style="fill:white;fill-rule:nonzero;"/>
            <path d="M11765.5,8817.28L11765.5,8817.02L11765.9,8816.91C11766.2,8816.82 11766.5,8816.67 11766.6,8816.46C11766.7,8816.25 11766.8,8815.97 11766.8,8815.61L11766.8,8807.33C11766.8,8806.94 11766.8,8806.65 11766.7,8806.47C11766.5,8806.28 11766.3,8806.15 11765.9,8806.08L11765.5,8805.98L11765.5,8805.71L11770.1,8804.18L11770.3,8804.44L11770.5,8806.24C11771.1,8805.66 11771.8,8805.16 11772.5,8804.76C11773.3,8804.35 11774.1,8804.15 11774.9,8804.15C11775.7,8804.15 11776.4,8804.32 11776.9,8804.67C11777.4,8805.01 11777.8,8805.54 11778.1,8806.27C11778.8,8805.61 11779.5,8805.1 11780.3,8804.72C11781.1,8804.34 11781.9,8804.15 11782.7,8804.15C11783.9,8804.15 11784.8,8804.45 11785.4,8805.05C11786,8805.65 11786.3,8806.59 11786.3,8807.88L11786.3,8815.64C11786.3,8816.33 11786.6,8816.76 11787.3,8816.94L11787.6,8817.02L11787.6,8817.28L11781.5,8817.28L11781.5,8817.02L11781.7,8816.94C11782.1,8816.83 11782.3,8816.67 11782.4,8816.46C11782.6,8816.25 11782.6,8815.97 11782.6,8815.61L11782.6,8807.51C11782.6,8806.77 11782.5,8806.26 11782.2,8805.99C11782,8805.72 11781.5,8805.58 11781,8805.58C11780.5,8805.58 11780,8805.68 11779.6,8805.88C11779.2,8806.09 11778.7,8806.39 11778.2,8806.8C11778.3,8807.08 11778.4,8807.39 11778.4,8807.72C11778.4,8808.06 11778.5,8808.41 11778.5,8808.78L11778.5,8815.64C11778.5,8816.33 11778.8,8816.76 11779.4,8816.94L11779.7,8817.02L11779.7,8817.28L11773.5,8817.28L11773.5,8817.02L11773.9,8816.91C11774.2,8816.81 11774.5,8816.65 11774.6,8816.45C11774.7,8816.24 11774.8,8815.97 11774.8,8815.61L11774.8,8807.54C11774.8,8806.83 11774.7,8806.33 11774.4,8806.03C11774.1,8805.73 11773.7,8805.58 11773.1,8805.58C11772.7,8805.58 11772.3,8805.68 11771.9,8805.88C11771.5,8806.09 11771,8806.38 11770.6,8806.77L11770.6,8815.64C11770.6,8816.33 11770.9,8816.76 11771.5,8816.94L11771.8,8817.02L11771.8,8817.28L11765.5,8817.28Z" style="fill:white;fill-rule:nonzero;"/>
            <path d="M11792.7,8817.68C11791.7,8817.68 11790.8,8817.39 11790.1,8816.81C11789.4,8816.22 11789.1,8815.38 11789.1,8814.29C11789.1,8813.46 11789.5,8812.7 11790.4,8812C11791.2,8811.3 11792.5,8810.78 11794.3,8810.42C11794.6,8810.37 11794.9,8810.31 11795.3,8810.25C11795.7,8810.19 11796,8810.12 11796.4,8810.05L11796.4,8807.96C11796.4,8806.76 11796.3,8805.92 11796,8805.43C11795.7,8804.95 11795.2,8804.7 11794.6,8804.7C11794.2,8804.7 11793.9,8804.84 11793.6,8805.12C11793.4,8805.39 11793.2,8805.86 11793.1,8806.53L11793.1,8806.82C11793,8807.58 11792.9,8808.14 11792.5,8808.49C11792.2,8808.84 11791.8,8809.02 11791.3,8809.02C11790.8,8809.02 11790.4,8808.88 11790.1,8808.6C11789.8,8808.32 11789.7,8807.93 11789.7,8807.46C11789.7,8806.74 11789.9,8806.13 11790.4,8805.63C11790.9,8805.14 11791.6,8804.77 11792.4,8804.52C11793.3,8804.27 11794.2,8804.15 11795.1,8804.15C11796.7,8804.15 11797.9,8804.53 11798.8,8805.3C11799.6,8806.07 11800.1,8807.32 11800.1,8809.05L11800.1,8814.9C11800.1,8815.69 11800.4,8816.09 11801.2,8816.09L11801.8,8816.09L11802,8816.3C11801.7,8816.73 11801.3,8817.05 11800.9,8817.28C11800.5,8817.51 11799.9,8817.63 11799.2,8817.63C11798.4,8817.63 11797.8,8817.44 11797.4,8817.08C11796.9,8816.72 11796.6,8816.24 11796.5,8815.64C11796,8816.2 11795.4,8816.69 11794.9,8817.08C11794.3,8817.48 11793.6,8817.68 11792.7,8817.68ZM11794.3,8816.06C11794.7,8816.06 11795,8815.98 11795.3,8815.81C11795.6,8815.64 11796,8815.38 11796.4,8815.03L11796.4,8810.58C11796.2,8810.62 11796.1,8810.65 11795.9,8810.69C11795.7,8810.72 11795.5,8810.76 11795.3,8810.8C11794.5,8811.01 11793.8,8811.36 11793.3,8811.87C11792.8,8812.37 11792.6,8813.05 11792.6,8813.89C11792.6,8814.62 11792.8,8815.16 11793.1,8815.52C11793.4,8815.88 11793.8,8816.06 11794.3,8816.06Z" style="fill:white;fill-rule:nonzero;"/>
            <path d="M11802.9,8817.28L11802.9,8817.02L11803.3,8816.91C11803.9,8816.73 11804.2,8816.3 11804.2,8815.61L11804.2,8807.33C11804.2,8806.94 11804.1,8806.65 11804,8806.47C11803.9,8806.28 11803.6,8806.15 11803.3,8806.08L11802.9,8805.98L11802.9,8805.71L11807.4,8804.18L11807.7,8804.44L11807.9,8806.03C11808.5,8805.48 11809.2,8805.03 11810,8804.68C11810.8,8804.33 11811.5,8804.15 11812.3,8804.15C11813.5,8804.15 11814.4,8804.47 11815,8805.1C11815.6,8805.74 11815.9,8806.71 11815.9,8808.01L11815.9,8815.64C11815.9,8816.33 11816.3,8816.76 11816.9,8816.94L11817.2,8817.02L11817.2,8817.28L11810.9,8817.28L11810.9,8817.02L11811.3,8816.91C11811.9,8816.72 11812.2,8816.28 11812.2,8815.61L11812.2,8807.17C11812.2,8806.04 11811.6,8805.47 11810.5,8805.47C11809.7,8805.47 11808.9,8805.86 11808,8806.64L11808,8815.64C11808,8816.33 11808.3,8816.76 11808.9,8816.94L11809.1,8817.02L11809.1,8817.28L11802.9,8817.28Z" style="fill:white;fill-rule:nonzero;"/>
        </g>
    </g>
</svg>
