<svg width="300" height="36" viewBox="0 0 300 36" fill="none" xmlns="http://www.w3.org/2000/svg">
<path d="M56.4489 34.1621V2.10234H61.6607V13.9276H77.4278V2.10234H82.6397V34.1621H77.4278V18.5922H61.6607V34.1621H56.4489Z" fill="white"/>
<path d="M89.9982 34.1621V2.10234H107.889V6.52596H95.21V14.5628H107.889V19.1397H95.21V29.4978H107.889V34.1621H89.9982Z" fill="white"/>
<path d="M139.585 9.89616C138.111 8.64064 136.552 7.69906 134.91 7.07141C133.267 6.44354 131.541 6.12961 129.731 6.12961C126.227 6.12961 123.377 7.25371 121.18 9.50213C118.982 11.7503 117.884 14.6629 117.884 18.2396C117.884 21.6998 118.953 24.5537 121.092 26.8021C123.231 29.0503 125.928 30.1744 129.184 30.1744C131.081 30.1744 132.888 29.8388 134.603 29.1671C136.319 28.4957 137.965 27.4809 139.542 26.1232V32.014C138.14 33.0213 136.614 33.7733 134.965 34.2695C133.315 34.766 131.527 35.0142 129.599 35.0142C127.147 35.0142 124.88 34.6126 122.8 33.8098C120.72 33.0067 118.891 31.8242 117.314 30.262C115.752 28.7291 114.551 26.9226 113.712 24.8421C112.873 22.7618 112.453 20.5462 112.453 18.1958C112.453 15.8454 112.873 13.6374 113.712 11.5715C114.551 9.50578 115.767 7.69176 117.358 6.12961C118.949 4.55286 120.774 3.35941 122.833 2.54924C124.891 1.73907 127.118 1.33388 129.512 1.33388C131.395 1.33388 133.191 1.60765 134.899 2.155C136.607 2.70255 138.264 3.53097 139.87 4.64047L139.585 9.89616Z" fill="white"/>
<path d="M144.787 34.1621V2.10235H149.999V13.9276H165.766V2.10235H170.978V34.1621H165.766V18.5922H149.999V34.1621H144.787Z" fill="white"/>
<path d="M176.499 27.7441L180.66 25.8171C181.054 27.2476 181.776 28.3391 182.828 29.0908C183.879 29.8428 185.222 30.2186 186.857 30.2186C188.404 30.2186 189.634 29.7881 190.547 28.9266C191.459 28.0653 191.916 26.912 191.916 25.4667C191.916 23.5833 190.354 21.9043 187.229 20.43C186.791 20.211 186.456 20.0503 186.222 19.9481C182.689 18.2254 180.335 16.6669 179.16 15.2726C177.984 13.8784 177.397 12.1741 177.397 10.1593C177.397 7.54608 178.284 5.42929 180.057 3.80874C181.831 2.18819 184.156 1.37802 187.032 1.37802C189.397 1.37802 191.375 1.8341 192.967 2.74669C194.558 3.65907 195.66 4.96935 196.273 6.67751L192.2 8.7797C191.558 7.77241 190.853 7.03524 190.087 6.568C189.321 6.10075 188.441 5.86712 187.448 5.86712C186.047 5.86712 184.934 6.23216 184.109 6.96224C183.284 7.6921 182.871 8.67019 182.871 9.8965C182.871 11.8237 184.682 13.6195 188.302 15.2836C188.58 15.415 188.799 15.5172 188.959 15.5902C192.127 17.0502 194.303 18.4772 195.485 19.8715C196.668 21.2657 197.259 23.0067 197.259 25.0943C197.259 28.131 196.303 30.5435 194.39 32.3319C192.478 34.1202 189.894 35.0145 186.638 35.0145C183.908 35.0145 181.671 34.3867 179.926 33.1312C178.182 31.8756 177.039 30.0799 176.499 27.7441Z" fill="white"/>
<path d="M229.089 18.3267C229.031 18.0785 228.936 17.3925 228.805 16.2684C228.688 15.3339 228.586 14.5602 228.498 13.9469C228.367 14.677 228.18 15.4069 227.94 16.1369C227.699 16.8668 227.396 17.6115 227.031 18.3705L218.644 35.4515L210.256 18.0201C209.906 17.3048 209.603 16.6113 209.348 15.9398C209.092 15.2681 208.869 14.604 208.68 13.9469C208.665 14.6186 208.61 15.3229 208.515 16.0603C208.42 16.7974 208.278 17.5677 208.088 18.3705L204.65 34.1595H199.854L207.431 0.74201L216.892 20.9765C217.038 21.2977 217.26 21.8307 217.559 22.5751C217.859 23.3196 218.22 24.2395 218.644 25.3344C218.95 24.4147 219.432 23.2466 220.089 21.8307C220.264 21.451 220.395 21.159 220.483 20.9546L229.724 0.74201L237.476 34.1595H232.637L229.089 18.3267Z" fill="white"/>
<path d="M248.415 21.5686H257.35L254.065 14.2543C253.875 13.7872 253.678 13.2506 253.474 12.6447C253.269 12.0389 253.065 11.3636 252.86 10.6191C252.685 11.3198 252.499 11.9732 252.302 12.579C252.105 13.1849 251.904 13.7434 251.7 14.2543L248.415 21.5686ZM262.824 34.1602L259.189 25.9044H246.488L242.765 34.1602H237.291L252.817 0.830338L268.321 34.1602H262.824Z" fill="white"/>
<path d="M271.334 34.1602V0.830338L291.7 20.4299C292.255 20.9845 292.817 21.5759 293.387 22.2035C293.956 22.8314 294.555 23.5393 295.182 24.3278V2.10045H300V35.4084L279.218 15.4587C278.663 14.9186 278.127 14.3492 277.608 13.7507C277.09 13.1521 276.597 12.5242 276.13 11.8674V34.1602H271.334Z" fill="white"/>
<path fill-rule="evenodd" clip-rule="evenodd" d="M0 19.0872C0 16.9234 0.847102 14.8484 2.35514 13.3185C3.86317 11.7886 5.90846 10.929 8.04114 10.929H22.2162V19.1024H8.05617C8.05617 21.3732 8.95824 23.5516 10.564 25.1573C12.1697 26.7629 14.3473 27.6649 16.618 27.6649C24.7794 27.6649 35.833 27.6649 35.833 27.6649V35.8383H16.7512C12.3084 35.8383 8.04779 34.0735 4.90632 30.932C1.76485 27.7905 0 23.5299 0 19.0872ZM35.833 0H8.17255C3.65897 0 0 3.65897 0 8.17255L35.833 8.17341V0Z" fill="#F1AC2B"/>
</svg>
