<?xml version="1.0" encoding="UTF-8" standalone="no"?>
<!DOCTYPE svg PUBLIC "-//W3C//DTD SVG 1.1//EN" "http://www.w3.org/Graphics/SVG/1.1/DTD/svg11.dtd">
<svg width="100%" height="100%" viewBox="0 0 300 36" version="1.1" xmlns="http://www.w3.org/2000/svg" xmlns:xlink="http://www.w3.org/1999/xlink" xml:space="preserve" xmlns:serif="http://www.serif.com/" style="fill-rule:evenodd;clip-rule:evenodd;stroke-linejoin:round;stroke-miterlimit:2;">
    <g transform="matrix(0.0940481,0,0,0.0940481,-1398.96,-143.923)">
        <path d="M15173,1707.46L15173,1707.37L15172.9,1707.37C15165.1,1701.75 15155.5,1698.68 15145.3,1698.68L15145.3,1698.68C15145.3,1698.68 15136.5,1799.3 15131,1862.68C15129.8,1876.05 15134,1888.88 15142.6,1898.33C15151.3,1907.78 15163.6,1913.1 15177,1913.1L15177,1913.1C15177,1913.1 15185.8,1812.48 15191.3,1749.1C15192.5,1735.73 15188.3,1722.9 15179.7,1713.45C15177.7,1711.22 15175.4,1709.22 15173,1707.46ZM15441.6,1913.1C15417.7,1913.1 15399.9,1906.99 15388.3,1894.79C15376.6,1882.58 15371.8,1865.25 15373.7,1842.78C15375.7,1820.49 15383.6,1803.15 15397.6,1790.77C15411.6,1778.57 15430.5,1772.46 15454.2,1772.46C15462,1772.46 15470.6,1774.1 15480.1,1777.37C15489.7,1780.64 15497.9,1785.29 15504.9,1791.3C15511.9,1797.32 15515.1,1803.51 15514.6,1809.88C15514,1816.07 15511.5,1821.24 15506.9,1825.4C15502.2,1829.56 15497,1831.63 15491.2,1831.63C15485.2,1831.63 15480.4,1829.42 15476.8,1825C15473.2,1820.58 15471.6,1815.71 15472.1,1810.41C15472.4,1807.22 15473.6,1803.73 15475.9,1799.93C15478.2,1796.12 15479.5,1792.54 15479.8,1789.18C15480.1,1786 15477.4,1782.86 15471.7,1779.76C15466.1,1776.66 15460.1,1775.12 15453.9,1775.12C15438.7,1775.12 15428.9,1780.95 15424.5,1792.63C15421.1,1802 15418.3,1818.72 15416.2,1842.78C15413.7,1870.91 15413.6,1887.89 15415.7,1893.73C15419.7,1904.87 15428.4,1910.44 15441.8,1910.44C15454.9,1910.44 15467.1,1907.26 15478.5,1900.89C15489.8,1894.52 15499.5,1885.85 15507.6,1874.89L15509.6,1876.21C15501.3,1887.53 15491.3,1896.51 15479.6,1903.14C15467.9,1909.78 15455.2,1913.1 15441.6,1913.1ZM16278.9,1911.77L16225.8,1911.77C16224,1911.77 16222.2,1910.35 16220.3,1907.52C16218.5,1904.69 16217.4,1903.28 16217,1903.28C16207.4,1909.82 16196.2,1913.1 16183.2,1913.1C16160.8,1913.1 16143.2,1908.05 16130.6,1897.97C16117.9,1887.89 16112.1,1876.57 16113.2,1864.01C16114.3,1851.45 16122,1840.35 16136.3,1830.71C16150.6,1821.07 16169.1,1816.24 16191.7,1816.24C16202.7,1816.24 16213.1,1818.46 16223,1822.88L16223.6,1816.24C16226,1788.83 16215.7,1775.12 16192.7,1775.12C16178,1775.12 16163.6,1778.92 16149.5,1786.53L16148.1,1784.14C16162.9,1776.35 16177.9,1772.46 16192.9,1772.46C16244.2,1772.46 16267.8,1795.9 16263.7,1842.78L16259.5,1890.54C16258.4,1902.92 16265,1909.12 16279.1,1909.12L16278.9,1911.77ZM15282.7,1913.1C15258.8,1913.1 15240.9,1906.99 15229.1,1894.79C15217.4,1882.58 15212.5,1865.25 15214.5,1842.78C15216.5,1820.49 15224.4,1803.15 15238.4,1790.77C15252.4,1778.57 15271.3,1772.46 15295,1772.46C15318.7,1772.46 15336.4,1778.57 15348.3,1790.77C15360.1,1803.15 15365.1,1820.49 15363.1,1842.78L15257,1842.78C15254.2,1874.09 15254.4,1892.22 15257.5,1897.17C15263.3,1906.02 15271.7,1910.44 15282.9,1910.44C15296.2,1910.44 15308.9,1907.17 15321.2,1900.62C15333.4,1894.08 15343.4,1885.5 15351.3,1874.89L15353.3,1876.21C15345.2,1887.36 15334.9,1896.29 15322.3,1903.01C15309.7,1909.74 15296.5,1913.1 15282.7,1913.1ZM15818.3,1775.12L15820.9,1775.12L15820,1812.53L15817.4,1812.53C15817.2,1805.9 15814.9,1798.73 15810.4,1791.04C15807.7,1786.53 15803.1,1782.74 15796.6,1779.69C15790.2,1776.64 15782.3,1775.12 15773.1,1775.12C15764.8,1775.12 15758.1,1777.28 15752.8,1781.62C15747.6,1785.95 15744.7,1790.51 15744.3,1795.28C15743.8,1801.3 15745.4,1805.81 15749.2,1808.82C15752.7,1811.64 15757.4,1814.65 15763.3,1817.84L15801.5,1836.41C15817.3,1845.26 15824.6,1856.75 15823.4,1870.91C15820.9,1899.03 15798.5,1913.1 15756,1913.1C15749.4,1913.1 15743.2,1912.21 15737.4,1910.44C15729.5,1907.97 15722.6,1904.16 15716.7,1899.03C15714.6,1897.26 15712.5,1896.38 15710.3,1896.38C15705.8,1896.38 15703.2,1901.33 15702.3,1911.24L15699.7,1911.24L15704.3,1870.38L15707,1870.38C15706.7,1873.03 15707.4,1876.39 15709,1880.46C15713.6,1892.05 15721.2,1900.36 15731.9,1905.4C15739,1908.76 15747.2,1910.44 15756.3,1910.44C15774.3,1910.44 15783.9,1903.72 15785.1,1890.28C15785.9,1880.72 15781.3,1873.21 15771.1,1867.72L15735.2,1850.74C15726.4,1846.58 15719.8,1841.36 15715.5,1835.08C15711.5,1829.16 15709.9,1822.26 15710.5,1814.39C15711.7,1801.3 15718,1791.04 15729.6,1783.61C15740.9,1776.18 15755.5,1772.46 15773.4,1772.46C15781.9,1772.46 15789.1,1773.61 15795,1775.91C15800.4,1778.12 15805.5,1779.23 15810.1,1779.23C15814.8,1779.23 15817.5,1777.86 15818.3,1775.12ZM15545.9,1731.33C15546.9,1718.95 15540.4,1712.76 15526.3,1712.76L15526.5,1710.11L15579.6,1710.11C15586.6,1710.11 15589.6,1717.18 15588.3,1731.33L15584,1781.22C15593.3,1775.38 15602.4,1772.46 15611.3,1772.46C15657.2,1772.46 15678.8,1788.83 15675.9,1821.55L15669.9,1890.54C15668.8,1902.92 15675.4,1909.12 15689.5,1909.12L15689.3,1911.77L15604.4,1911.77L15604.6,1909.12C15618.8,1909.12 15626.4,1902.92 15627.5,1890.54L15633.3,1824.2C15636.1,1791.48 15628.7,1775.12 15611,1775.12C15602,1775.12 15592.9,1778.3 15583.7,1784.67L15574.4,1890.54C15573.3,1902.92 15579.8,1909.12 15594,1909.12L15593.8,1911.77L15508.8,1911.77L15509.1,1909.12C15523.2,1909.12 15530.8,1902.92 15531.9,1890.54L15545.9,1731.33ZM15904.3,1795.02L15896,1890.54C15894.9,1902.92 15901.4,1909.12 15915.6,1909.12L15915.4,1911.77L15830.4,1911.77L15830.7,1909.12C15844.8,1909.12 15852.5,1902.92 15853.5,1890.54L15861.9,1795.02C15863,1782.63 15856.4,1776.44 15842.3,1776.44L15842.5,1773.79L15895.6,1773.79C15897.2,1773.79 15899,1775.16 15900.9,1777.9C15902.9,1780.64 15904.1,1782.02 15904.4,1782.02C15914.5,1775.65 15924,1772.46 15932.9,1772.46C15960.6,1772.46 15979.6,1778.48 15989.7,1790.51C15993.1,1787.14 15996.6,1784.31 15999.9,1782.02C16010.1,1775.65 16019.5,1772.46 16028.4,1772.46C16074.4,1772.46 16095.9,1788.83 16093.1,1821.55L16087,1890.54C16086,1902.92 16092.5,1909.12 16106.6,1909.12L16106.4,1911.77L16021.5,1911.77L16021.7,1909.12C16035.9,1909.12 16043.5,1902.92 16044.6,1890.54L16050.4,1824.2C16053.2,1791.48 16045.8,1775.12 16028.1,1775.12C16018.9,1775.12 16009.6,1778.39 16000.2,1784.93C15996.5,1787.59 15993.5,1790.24 15991.3,1792.89C15996.5,1800.32 15998.6,1809.88 15997.5,1821.55L15991.5,1890.54C15990.4,1902.92 15997,1909.12 16011.1,1909.12L16010.9,1911.77L15926,1911.77L15926.2,1909.12C15940.4,1909.12 15948,1902.92 15949.1,1890.54L15954.9,1824.2C15957.7,1791.48 15950.3,1775.12 15932.6,1775.12C15923.4,1775.12 15914.1,1778.39 15904.7,1784.93C15904.8,1788.12 15904.7,1791.48 15904.3,1795.02ZM16363.1,1795.02L16354.8,1890.54C16353.7,1902.92 16360.2,1909.12 16374.4,1909.12L16374.1,1911.77L16289.2,1911.77L16289.5,1909.12C16303.6,1909.12 16311.2,1902.92 16312.3,1890.54L16320.7,1795.02C16321.8,1782.63 16315.2,1776.44 16301.1,1776.44L16301.3,1773.79L16354.4,1773.79C16356,1773.79 16357.7,1775.16 16359.7,1777.9C16361.7,1780.64 16362.9,1782.02 16363.2,1782.02C16373.3,1775.65 16382.8,1772.46 16391.6,1772.46C16437.6,1772.46 16459.2,1788.83 16456.3,1821.55L16450.3,1890.54C16449.2,1902.92 16455.7,1909.12 16469.9,1909.12L16469.7,1911.77L16384.8,1911.77L16385,1909.12C16399.1,1909.12 16406.8,1902.92 16407.8,1890.54L16413.6,1824.2C16416.5,1791.48 16409.1,1775.12 16391.4,1775.12C16382.2,1775.12 16372.9,1778.39 16363.5,1784.93C16363.6,1788.12 16363.4,1791.48 16363.1,1795.02ZM16222.7,1825.8C16213,1821.2 16202.6,1818.9 16191.5,1818.9C16178.4,1818.9 16168.8,1823.85 16162.6,1833.76C16159.3,1838.53 16157,1848.62 16155.7,1864.01C16154.1,1882.76 16155.3,1894.96 16159.4,1900.62C16164.3,1907.17 16172.3,1910.44 16183.5,1910.44C16196.9,1910.44 16208,1907.08 16216.7,1900.36C16217.3,1889.39 16218.1,1878.87 16219,1868.78L16222.7,1825.8ZM15026,1837.78L15027.5,1821.29C15029.9,1793.44 15054.5,1770.87 15082.3,1770.87L15139,1770.87C15139,1770.87 15139,1770.87 15139,1770.87C15112,1770.87 15088,1792.18 15084.5,1818.94L15084,1824.52L15080.9,1859.68C15078.5,1887.52 15053.9,1910.09 15026.1,1910.09L14947.3,1910.09C14987.3,1910.09 15022.5,1877.72 15026,1837.78L15026,1837.78ZM15182.4,1729.24C15184.9,1735.35 15186,1742.14 15185.3,1749.1L15171.6,1906.69C15170,1906.48 15168.5,1906.18 15166.9,1905.8L15182.4,1729.24ZM15172.3,1714.97C15173.3,1715.83 15174.2,1716.73 15175.1,1717.69C15175.8,1718.5 15176.5,1719.34 15177.2,1720.2L15161.1,1903.85C15159.4,1903.11 15157.7,1902.25 15156,1901.28L15172.3,1714.97ZM15145.6,1891.9L15161.6,1708.11C15163.4,1708.88 15165.1,1709.76 15166.7,1710.76L15150.4,1897.18C15149.3,1896.22 15148.2,1895.18 15147.2,1894.09C15146.6,1893.38 15146,1892.65 15145.4,1891.9L15145.6,1891.9ZM15155.8,1706.1L15140.3,1883.41C15137.5,1877.08 15136.3,1869.97 15137,1862.68L15150.8,1705.09C15152.5,1705.32 15154.2,1705.66 15155.8,1706.1ZM15257.2,1840.13L15320.9,1840.13C15323.2,1813.24 15323.3,1796.96 15321.2,1791.3C15317.2,1780.51 15308.3,1775.12 15294.7,1775.12C15281.3,1775.12 15272.2,1779.63 15267.5,1788.65C15262.8,1798.02 15259.4,1815.18 15257.2,1840.13ZM14955,1671.27L14955,1671.27C14951.3,1714.44 14983.2,1749.43 15026.4,1749.43C15026.4,1749.53 15026.4,1749.57 15026.4,1749.57L14948.2,1749.57L14947.9,1749.51C14902.1,1738.03 14871,1695.73 14875.4,1645.37C14879.8,1594.91 14918.4,1552.55 14966.4,1541.17C14966.4,1541.17 15024.3,1541.17 15024.3,1541.17L15024.3,1541.17C15045.1,1541.24 15064.3,1549.55 15077.8,1564.29C15091.3,1579.09 15097.9,1599.16 15096,1620.09L15096,1620.09L15096,1620.66L15096,1620.66L15094.6,1636.7L14958.1,1636.7L14955,1671.27ZM15063.4,1698.68C15077.3,1698.68 15087.6,1709.98 15086.4,1723.89C15085.2,1737.8 15072.9,1749.1 15059,1749.1C15045.1,1749.1 15034.8,1737.8 15036,1723.89C15037.2,1709.98 15049.5,1698.68 15063.4,1698.68ZM14937.4,1739.61L14953.9,1551.13C14955.8,1550.4 14957.8,1549.72 14959.7,1549.09L14942.9,1741.65C14941,1741.03 14939.2,1740.35 14937.4,1739.61ZM14955,1671.27L14949.1,1739.08L14955,1671.27ZM14947.7,1553.72L14931.6,1737.03C14929.2,1735.83 14926.8,1734.54 14924.5,1733.14L14939.9,1557.6C14942.4,1556.2 14945,1554.91 14947.7,1553.72ZM14933.6,1561.34L14918.8,1729.41C14916.4,1727.68 14914.1,1725.84 14911.9,1723.89L14925.6,1566.85C14928.2,1564.9 14930.8,1563.06 14933.6,1561.34ZM14919.2,1572.14L14906.4,1718.6C14904,1716.11 14901.7,1713.47 14899.6,1710.7L14911,1580.04C14913.6,1577.28 14916.3,1574.64 14919.2,1572.14ZM14904.4,1587.86L14894.3,1702.88C14891.8,1698.78 14889.6,1694.45 14887.8,1689.94L14888,1689.94L14895.8,1600.48C14898.4,1596.08 14901.2,1591.87 14904.4,1587.86ZM15497.9,1680.48L15444.8,1680.48C15443,1680.48 15441.2,1679.06 15439.3,1676.23C15437.5,1673.4 15436.3,1671.99 15436,1671.99C15426.4,1678.53 15415.1,1681.8 15402.2,1681.8C15379.8,1681.8 15362.2,1676.76 15349.6,1666.68C15336.9,1656.6 15331.1,1645.27 15332.2,1632.71C15333.3,1620.15 15341,1609.05 15355.3,1599.41C15369.6,1589.77 15388.1,1584.95 15410.7,1584.95C15421.7,1584.95 15432.1,1587.16 15442,1591.59L15442.5,1584.95C15444.9,1557.53 15434.6,1543.82 15411.6,1543.82C15397,1543.82 15382.6,1547.63 15368.5,1555.23L15367.1,1552.84C15381.9,1545.06 15396.8,1541.17 15411.9,1541.17C15463.2,1541.17 15486.8,1564.61 15482.7,1611.49L15478.5,1659.25C15477.4,1671.63 15484,1677.82 15498.1,1677.82L15497.9,1680.48ZM15273.7,1680.48L15265.2,1680.48C15262,1680.48 15259.7,1679.5 15258.3,1677.56C15258.1,1677.2 15256.5,1671.63 15253.3,1660.84L15231.8,1592.12L15207.5,1641.74L15188.7,1680.48L15180.2,1680.48C15177.1,1680.48 15174.8,1679.5 15173.3,1677.56C15173.2,1677.2 15171.6,1671.63 15168.4,1660.84L15137.7,1563.19C15134.9,1554.35 15132.2,1549.13 15129.5,1547.54C15127.2,1545.94 15123,1545.15 15117,1545.15L15117.2,1542.5L15167.6,1542.5C15173.7,1542.5 15178.5,1549.04 15182.1,1562.13L15206.3,1637.76L15230.8,1588.14L15222.9,1563.19C15221,1556.83 15219.2,1552.58 15217.6,1550.46C15214.9,1546.92 15209.7,1545.15 15201.9,1545.15L15202.1,1542.5L15284.4,1542.5L15284.2,1545.15C15272.8,1545.15 15266.9,1548.07 15266.4,1553.91C15266.2,1556.74 15266.5,1559.48 15267.3,1562.13L15291.2,1637.76L15328.3,1562.13C15329.8,1559.12 15330.7,1556.29 15330.9,1553.64C15331.4,1547.98 15326.4,1545.15 15316,1545.15L15316.2,1542.5L15350.7,1542.5L15350.5,1545.15C15342.9,1545.33 15336.3,1551.34 15330.9,1563.19L15292.4,1641.74L15273.7,1680.48ZM15441.7,1594.5C15432,1589.9 15421.6,1587.61 15410.5,1587.61C15397.4,1587.61 15387.7,1592.56 15381.6,1602.46C15378.3,1607.24 15376,1617.32 15374.7,1632.71C15373,1651.47 15374.3,1663.67 15378.4,1669.33C15383.3,1675.88 15391.3,1679.15 15402.5,1679.15C15415.9,1679.15 15427,1675.79 15435.7,1669.07C15436.3,1658.1 15437.1,1647.57 15437.9,1637.49L15441.7,1594.5ZM14888.5,1615.47L14883.3,1675.27C14881.2,1665.83 14880.5,1655.78 14881.4,1645.37C14882.3,1634.96 14884.7,1624.92 14888.5,1615.47ZM15047.8,1620.09L15047.8,1620.66L14959.5,1620.66L14962.6,1585.38C14963.6,1573.68 14969.2,1562.46 14978.2,1554.18C14986.8,1546.31 14997.7,1541.72 15008.9,1541.3L15008.9,1541.26L15013.4,1541.26L15013.4,1541.36C15024,1542.05 15033.7,1546.59 15040.6,1554.18C15048.1,1562.46 15051.8,1573.68 15050.8,1585.38L15047.8,1620.09L15047.8,1620.09Z" style="fill:white;"/>
    </g>
    <g transform="matrix(0.0940481,0,0,0.0940481,-1398.96,-143.923)">
        <path d="M15063.4,1698.68C15077.3,1698.68 15087.6,1709.98 15086.4,1723.89C15085.2,1737.8 15072.9,1749.1 15059,1749.1C15045.1,1749.1 15034.8,1737.8 15036,1723.89C15037.2,1709.98 15049.5,1698.68 15063.4,1698.68Z" style="fill:rgb(248,164,57);"/>
    </g>
</svg>
