<svg width="30" height="30" viewBox="0 0 30 30" fill="none" xmlns="http://www.w3.org/2000/svg">
<path fill-rule="evenodd" clip-rule="evenodd" d="M29 1H1V29H29V1ZM0 0V30H30V0H0Z" fill="white"/>
<path fill-rule="evenodd" clip-rule="evenodd" d="M5.17188 8.54688H10.75C11.6647 8.54688 12.4087 8.58501 12.9407 8.67813C13.5197 8.77328 14.0553 8.9799 14.5318 9.3064C15.0183 9.63614 15.411 10.0698 15.7134 10.5866C16.0451 11.1478 16.2031 11.7706 16.2031 12.4297C16.2031 13.1578 16.0022 13.8385 15.6059 14.4485C15.5423 14.5476 15.4749 14.6428 15.4037 14.7341C15.6226 14.9124 15.8212 15.1156 15.997 15.345C16.0619 15.4297 16.1226 15.5163 16.1791 15.6045C16.3556 14.6036 16.7529 13.7232 17.4134 13.0095C18.3288 12.015 19.5079 11.5156 20.875 11.5156C22.3535 11.5156 23.6187 12.0178 24.5493 13.0835C25.4972 14.1637 25.8535 15.7052 25.8201 17.5029L25.8128 17.8988L26.0397 17.9369L25.6468 19.0575C25.3064 20.0283 24.744 20.8256 23.9364 21.3847L23.9349 21.3857C23.1273 21.9427 22.1586 22.1875 21.0938 22.1875C19.4158 22.1875 18.0102 21.625 17.0848 20.3656L17.0807 20.36C16.8293 20.0129 16.6279 19.6386 16.473 19.2403C16.4207 19.3766 16.3615 19.5115 16.2956 19.6448C15.9864 20.2758 15.5485 20.8018 14.9817 21.2006L14.9797 21.202C14.3988 21.6087 13.7146 21.8337 12.9689 21.9159L12.9669 21.9161C12.5205 21.9643 11.5342 21.9897 10.0774 22L10.0703 22L5.17188 22V8.54688ZM15.3984 19.2031C15.6432 18.7083 15.7656 18.2005 15.7656 17.6797C15.7656 17.0182 15.5781 16.4427 15.2031 15.9531C15.0537 15.758 14.8785 15.5856 14.6777 15.436C14.3748 15.2102 14.0135 15.0362 13.5938 14.9141C13.9722 14.7428 14.2897 14.506 14.5463 14.2036C14.6252 14.1107 14.6983 14.0116 14.7656 13.9062C15.0573 13.4583 15.2031 12.9661 15.2031 12.4297C15.2031 11.9349 15.0859 11.4896 14.8516 11.0938C14.6172 10.6927 14.3229 10.3724 13.9688 10.1328C13.6198 9.89323 13.2214 9.73698 12.7734 9.66406C12.3307 9.58594 11.6562 9.54688 10.75 9.54688H6.17188V21H10.0703C11.5443 20.9896 12.474 20.9635 12.8594 20.9219C13.474 20.8542 13.9896 20.6745 14.4062 20.3828C14.8281 20.0859 15.1589 19.6927 15.3984 19.2031ZM11.6797 14.0625C12.0755 14.0156 12.3854 13.8802 12.6094 13.6562C12.8385 13.4271 12.9531 13.1276 12.9531 12.7578C12.9531 12.4036 12.8542 12.1172 12.6562 11.8984C12.4635 11.6745 12.1745 11.5391 11.7891 11.4922C11.5599 11.4661 10.901 11.4531 9.8125 11.4531H8.48438V14.1016H10C10.901 14.1016 11.4609 14.0885 11.6797 14.0625ZM9.48438 13.1016H10C10.9242 13.1016 11.4152 13.0869 11.5615 13.0695C11.793 13.0421 11.8744 12.977 11.9023 12.9491L11.9036 12.9478C11.9191 12.9325 11.9531 12.8987 11.9531 12.7578C11.9531 12.6735 11.9414 12.626 11.9337 12.6039C11.927 12.5844 11.9208 12.5761 11.9147 12.5694L11.9064 12.5601M9.48438 13.1016V12.4531H9.8125C10.9205 12.4531 11.509 12.4675 11.6727 12.4854M12.3984 16.1719C12.0859 16.0625 11.4036 16.0078 10.3516 16.0078H8.48438V19.0703H10.625C11.4583 19.0703 11.987 19.0469 12.2109 19C12.5547 18.9375 12.8333 18.7865 13.0469 18.5469C13.2656 18.3021 13.375 17.9766 13.375 17.5703C13.375 17.2266 13.2917 16.9349 13.125 16.6953C12.9583 16.4557 12.7161 16.2812 12.3984 16.1719ZM9.48438 18.0703H10.625C11.0342 18.0703 11.3585 18.0645 11.6022 18.0537C11.724 18.0483 11.8199 18.0419 11.8928 18.0351C11.929 18.0317 11.9568 18.0285 11.9773 18.0257C11.9961 18.0231 12.005 18.0214 12.006 18.0212L12.019 18.0185L12.0321 18.0161C12.1771 17.9898 12.2486 17.9395 12.3004 17.8815L12.3012 17.8805C12.3197 17.8598 12.375 17.7916 12.375 17.5703C12.375 17.3935 12.3346 17.3102 12.3041 17.2664C12.2764 17.2265 12.2215 17.1686 12.0729 17.1174L12.0681 17.1158C12.0676 17.1156 12.0571 17.1121 12.0339 17.1066C12.0096 17.1009 11.9761 17.094 11.932 17.0868C11.8428 17.0721 11.7244 17.0578 11.5724 17.0456C11.268 17.0212 10.8634 17.0078 10.3516 17.0078H9.48438V18.0703ZM22.5156 18.3594C22.5033 18.4023 22.4904 18.4439 22.4768 18.4844C22.3588 18.837 22.1946 19.0974 21.9844 19.2656C21.75 19.4531 21.4609 19.5469 21.1172 19.5469C20.612 19.5469 20.1901 19.3672 19.8516 19.0078C19.7121 18.8576 19.6001 18.6832 19.5154 18.4844C19.3945 18.2006 19.3295 17.8672 19.3203 17.4844H24.8203C24.8229 17.3432 24.8229 17.2051 24.8203 17.07C24.8164 16.868 24.8066 16.6727 24.7909 16.4844C24.6923 15.2985 24.3609 14.3845 23.7969 13.7422C23.0833 12.9245 22.1094 12.5156 20.875 12.5156C19.776 12.5156 18.8672 12.9062 18.1484 13.6875C17.4297 14.4635 17.0703 15.5391 17.0703 16.9141C17.0703 18.0651 17.3438 19.0182 17.8906 19.7734C18.5833 20.7161 19.651 21.1875 21.0938 21.1875C22.0052 21.1875 22.763 20.9792 23.3672 20.5625C23.7121 20.3237 24.0044 20.0241 24.2442 19.6635C24.4281 19.387 24.5811 19.0747 24.7031 18.7266L22.5156 18.3594ZM21.3602 18.4844H20.7964C20.8874 18.5266 20.9908 18.5469 21.1172 18.5469C21.2686 18.5469 21.3284 18.5098 21.3602 18.4844C21.3603 18.4843 21.36 18.4845 21.3602 18.4844ZM19.3594 16.0821C19.3592 16.1015 19.3592 16.121 19.3594 16.1406H22.6406C22.631 15.7489 22.5649 15.4156 22.4425 15.1406C22.3663 14.9696 22.2683 14.8212 22.1484 14.6953C21.8359 14.362 21.4557 14.1953 21.0078 14.1953C20.5286 14.1953 20.1328 14.3698 19.8203 14.7188C19.7087 14.8434 19.6173 14.984 19.5462 15.1406C19.4248 15.408 19.3626 15.7218 19.3594 16.0821Z" fill="white"/>
<path fill-rule="evenodd" clip-rule="evenodd" d="M25 10.5H17V9.5H25V10.5Z" fill="white"/>
</svg>
