<svg width="30" height="30" viewBox="0 0 30 30" fill="none" xmlns="http://www.w3.org/2000/svg">
<path fill-rule="evenodd" clip-rule="evenodd" d="M15 25C20.5228 25 25 20.5228 25 15C25 9.47715 20.5228 5 15 5C9.47715 5 5 9.47715 5 15C5 20.5228 9.47715 25 15 25ZM15 26C21.0751 26 26 21.0751 26 15C26 8.92487 21.0751 4 15 4C8.92487 4 4 8.92487 4 15C4 21.0751 8.92487 26 15 26Z" fill="#0B0B0B"/>
<path fill-rule="evenodd" clip-rule="evenodd" d="M13.362 9.43368C12.3092 7.81654 11.2495 6.45652 10.6133 5.82027L11.3204 5.11316C12.0286 5.82135 13.1323 7.24799 14.2 8.88808C15.2696 10.531 16.3314 12.4313 16.9367 14.0958C17.176 14.754 17.4434 15.4684 17.7193 16.2056C18.1112 17.2527 18.5202 18.3457 18.8905 19.3886C19.5218 21.1666 20.0692 22.8758 20.2607 24.0887L19.273 24.2447C19.0978 23.1354 18.5819 21.508 17.9482 19.7232C17.5779 18.6805 17.1774 17.6104 16.7898 16.5751C16.5137 15.8374 16.2441 15.1174 15.9969 14.4376C15.4289 12.8755 14.4129 11.0479 13.362 9.43368Z" fill="#0B0B0B"/>
<path fill-rule="evenodd" clip-rule="evenodd" d="M15.068 13.4381C12.1814 14.5036 8.73206 14.8692 3.98926 14.7666L4.0109 13.7668C8.70489 13.8684 12.008 13.5017 14.7217 12.5C17.4246 11.5023 19.5864 9.85846 21.9691 7.32422L22.6977 8.00922C20.252 10.6103 17.9656 12.3686 15.068 13.4381Z" fill="#0B0B0B"/>
<path fill-rule="evenodd" clip-rule="evenodd" d="M15.2862 17.0381C12.7385 18.0686 10.5892 20.067 8.06398 23.3702L7.26953 22.7629C9.83151 19.4116 12.1144 17.2423 14.9112 16.1111C17.7078 14.9798 20.9434 14.9165 25.3441 15.6059L25.1894 16.5939C20.8547 15.9148 17.8338 16.0075 15.2862 17.0381Z" fill="#0B0B0B"/>
<path fill-rule="evenodd" clip-rule="evenodd" d="M29 1H1V29H29V1ZM0 0V30H30V0H0Z" fill="#0B0B0B"/>
</svg>
