<svg width="30" height="30" viewBox="0 0 30 30" fill="none" xmlns="http://www.w3.org/2000/svg">
<path fill-rule="evenodd" clip-rule="evenodd" d="M29 1H1V29H29V1ZM0 0V30H30V0H0Z" fill="#737373"/>
<path fill-rule="evenodd" clip-rule="evenodd" d="M19 5H11C7.68629 5 5 7.68629 5 11V19C5 22.3137 7.68629 25 11 25H19C22.3137 25 25 22.3137 25 19V11C25 7.68629 22.3137 5 19 5ZM11 4C7.13401 4 4 7.13401 4 11V19C4 22.866 7.13401 26 11 26H19C22.866 26 26 22.866 26 19V11C26 7.13401 22.866 4 19 4H11Z" fill="#737373"/>
<path fill-rule="evenodd" clip-rule="evenodd" d="M14.9999 19.6668C17.5772 19.6668 19.6666 17.5775 19.6666 15.0002C19.6666 12.4228 17.5772 10.3335 14.9999 10.3335C12.4226 10.3335 10.3333 12.4228 10.3333 15.0002C10.3333 17.5775 12.4226 19.6668 14.9999 19.6668ZM14.9999 20.6668C18.1295 20.6668 20.6666 18.1298 20.6666 15.0002C20.6666 11.8705 18.1295 9.3335 14.9999 9.3335C11.8703 9.3335 9.33325 11.8705 9.33325 15.0002C9.33325 18.1298 11.8703 20.6668 14.9999 20.6668Z" fill="#737373"/>
<path fill-rule="evenodd" clip-rule="evenodd" d="M21.6667 9.33325C22.219 9.33325 22.6667 8.88554 22.6667 8.33325C22.6667 7.78097 22.219 7.33325 21.6667 7.33325C21.1145 7.33325 20.6667 7.78097 20.6667 8.33325C20.6667 8.88554 21.1145 9.33325 21.6667 9.33325Z" fill="#737373"/>
</svg>
