<svg width="30" height="30" viewBox="0 0 30 30" fill="none" xmlns="http://www.w3.org/2000/svg">
<path fill-rule="evenodd" clip-rule="evenodd" d="M29 1H1V29H29V1ZM0 0V30H30V0H0Z" fill="#737373"/>
<path fill-rule="evenodd" clip-rule="evenodd" d="M8.9 12.3H6V25H8.9V12.3ZM5 11.3V26H9.9V11.3H5Z" fill="#737373"/>
<path fill-rule="evenodd" clip-rule="evenodd" d="M7.45 8.9C8.25081 8.9 8.9 8.25081 8.9 7.45C8.9 6.64919 8.25081 6 7.45 6C6.64919 6 6 6.64919 6 7.45C6 8.25081 6.64919 8.9 7.45 8.9ZM7.45 9.9C8.8031 9.9 9.9 8.8031 9.9 7.45C9.9 6.0969 8.8031 5 7.45 5C6.0969 5 5 6.0969 5 7.45C5 8.8031 6.0969 9.9 7.45 9.9Z" fill="#737373"/>
<path fill-rule="evenodd" clip-rule="evenodd" d="M11.1499 11.1499H16.3499V12.3583C16.715 12.1328 17.1405 11.9264 17.5959 11.7518C18.5191 11.3979 19.6298 11.1499 20.7499 11.1499C21.9158 11.1499 23.3192 11.627 24.4274 12.3197C24.9858 12.6686 25.4927 13.0866 25.8653 13.5524C26.2359 14.0157 26.4999 14.5604 26.4999 15.1499V26.1499H20.9499V17.5999C20.9499 17.2864 20.8997 16.8963 20.6668 16.5899C20.4537 16.3096 20.0099 15.9999 18.9999 15.9999C17.9899 15.9999 17.5461 16.3096 17.333 16.5899C17.1001 16.8963 17.0499 17.2864 17.0499 17.5999V26.1499H11.1499V11.1499ZM12.1499 12.1499V25.1499H16.0499V17.5999C16.0499 17.2134 16.1047 16.5535 16.5368 15.9849C16.9887 15.3902 17.7699 14.9999 18.9999 14.9999C20.2299 14.9999 21.0111 15.3902 21.463 15.9849C21.8951 16.5535 21.9499 17.2134 21.9499 17.5999V25.1499H25.4999V15.1499C25.4999 14.8644 25.3701 14.5341 25.0845 14.1771C24.8008 13.8225 24.389 13.4749 23.8974 13.1677C22.9056 12.5478 21.684 12.1499 20.7499 12.1499C19.77 12.1499 18.7807 12.3686 17.9539 12.6855C17.1122 13.0082 16.5013 13.4083 16.2295 13.7253L15.3499 14.7515V12.1499H12.1499Z" fill="#737373"/>
</svg>
