<svg width="30" height="30" viewBox="0 0 30 30" fill="none" xmlns="http://www.w3.org/2000/svg">
<path fill-rule="evenodd" clip-rule="evenodd" d="M29 1H1V29H29V1ZM0 0V30H30V0H0Z" fill="#0B0B0B"/>
<path fill-rule="evenodd" clip-rule="evenodd" d="M8.9 12.3H6V25H8.9V12.3ZM5 11.3V26H9.9V11.3H5Z" fill="#0B0B0B"/>
<path fill-rule="evenodd" clip-rule="evenodd" d="M7.45 8.9C8.25081 8.9 8.9 8.25081 8.9 7.45C8.9 6.64919 8.25081 6 7.45 6C6.64919 6 6 6.64919 6 7.45C6 8.25081 6.64919 8.9 7.45 8.9ZM7.45 9.9C8.8031 9.9 9.9 8.8031 9.9 7.45C9.9 6.0969 8.8031 5 7.45 5C6.0969 5 5 6.0969 5 7.45C5 8.8031 6.0969 9.9 7.45 9.9Z" fill="#0B0B0B"/>
<path fill-rule="evenodd" clip-rule="evenodd" d="M11.1499 11.15H16.3499V12.3584C16.715 12.133 17.1405 11.9265 17.5959 11.7519C18.5191 11.398 19.6298 11.15 20.7499 11.15C21.9158 11.15 23.3192 11.6271 24.4274 12.3198C24.9858 12.6688 25.4927 13.0868 25.8653 13.5525C26.2359 14.0158 26.4999 14.5606 26.4999 15.15V26.15H20.9499V17.6C20.9499 17.2866 20.8997 16.8965 20.6668 16.5901C20.4537 16.3097 20.0099 16 18.9999 16C17.9899 16 17.5461 16.3097 17.333 16.5901C17.1001 16.8965 17.0499 17.2866 17.0499 17.6V26.15H11.1499V11.15ZM12.1499 12.15V25.15H16.0499V17.6C16.0499 17.2135 16.1047 16.5536 16.5368 15.985C16.9887 15.3904 17.7699 15 18.9999 15C20.2299 15 21.0111 15.3904 21.463 15.985C21.8951 16.5536 21.9499 17.2135 21.9499 17.6V25.15H25.4999V15.15C25.4999 14.8645 25.3701 14.5343 25.0845 14.1772C24.8008 13.8227 24.389 13.475 23.8974 13.1678C22.9056 12.5479 21.684 12.15 20.7499 12.15C19.77 12.15 18.7807 12.3687 17.9539 12.6856C17.1122 13.0083 16.5013 13.4084 16.2295 13.7254L15.3499 14.7517V12.15H12.1499Z" fill="#0B0B0B"/>
</svg>
