<svg width="30" height="30" viewBox="0 0 30 30" fill="none" xmlns="http://www.w3.org/2000/svg">
<path fill-rule="evenodd" clip-rule="evenodd" d="M29 1H1V29H29V1ZM0 0V30H30V0H0Z" fill="white"/>
<path fill-rule="evenodd" clip-rule="evenodd" d="M21.9988 8.20945C21.4518 7.77193 19.6554 6.99307 17.184 7.9718C16.007 8.43795 15.4386 9.24559 15.1864 10.0705C14.9275 10.9177 15.0022 11.7929 15.1486 12.3245L15.323 12.9573H11.6666C11.4123 12.9573 11.1468 12.886 10.8946 12.7881C10.637 12.6881 10.3622 12.5482 10.0808 12.3835C9.51802 12.0543 8.89363 11.6056 8.27388 11.1175C7.35923 10.3971 6.43192 9.57294 5.69235 8.8773C5.59606 9.68122 5.49991 10.7699 5.49991 11.7973C5.49991 12.4687 5.98651 12.8409 6.58462 13.1173C6.72538 13.1823 6.86028 13.2364 6.98713 13.2873L7.00723 13.2953C7.11928 13.3403 7.25128 13.3932 7.35026 13.4476C7.39787 13.4738 7.48665 13.5257 7.56144 13.6104C7.64825 13.7087 7.766 13.9194 7.66759 14.1746C7.59511 14.3625 7.44276 14.4534 7.3881 14.4842C7.31372 14.5263 7.23148 14.5576 7.15661 14.5823C6.5799 14.7726 6.0283 14.5799 5.62214 14.3385C5.6706 14.6996 5.73681 15.143 5.8263 15.6746C5.94184 16.3609 6.50666 16.6909 7.23994 16.9329C7.39857 16.9852 7.55338 17.0298 7.70582 17.0737C7.7229 17.0786 7.73995 17.0835 7.75697 17.0884C7.91847 17.135 8.08857 17.1847 8.23262 17.2406C8.3597 17.2898 8.55279 17.3742 8.68993 17.5309C8.76874 17.6209 8.83822 17.7449 8.8552 17.9006C8.87189 18.0537 8.83246 18.1884 8.77956 18.2931C8.65713 18.5356 8.46563 18.7028 8.23537 18.7894C8.01857 18.871 7.79908 18.8698 7.61787 18.8428C7.61009 18.8417 7.60232 18.8404 7.59457 18.8392C7.6527 18.9274 7.73353 19.0246 7.84137 19.1296C8.05094 19.3336 8.33047 19.5357 8.64849 19.7262C9.28471 20.1073 10.016 20.4068 10.4899 20.5632L11.0413 20.7451L10.7796 21.2634C10.6021 21.6147 10.0101 22.2509 8.8884 22.8062C8.28349 23.1056 7.49874 23.2796 6.79632 23.381C6.49726 23.4242 6.20479 23.4553 5.93568 23.4768C6.21922 23.6968 6.66539 23.9352 7.35256 24.1294C8.74873 24.5239 11.0325 24.696 14.594 24.1736C17.9956 23.6746 20.1848 21.5509 21.5526 19.0413C22.9265 16.5203 23.4463 13.6474 23.5001 11.7829L23.5053 11.6047L24.7165 10.2056L22.9379 10.4991L24.1564 8.68948L22.8554 9.05752L21.9988 8.20945ZM6.41434 17.6876C5.73881 17.3883 5.01257 16.8646 4.84018 15.8406C4.573 14.2534 4.49991 13.3822 4.49991 13.1174V11.6293L4.50069 11.6303C4.51528 10.0583 4.73007 8.40809 4.84018 7.75395L5.00016 6.80357L5.68503 7.48164C6.45354 8.24253 7.6892 9.38412 8.8926 10.3319C9.49508 10.8064 10.079 11.2239 10.5857 11.5204C10.839 11.6686 11.0642 11.7813 11.2563 11.8558C11.4537 11.9324 11.5875 11.9573 11.6666 11.9573H14.0596C13.9784 11.3293 13.9939 10.551 14.2301 9.77823C14.5613 8.69449 15.3262 7.63199 16.8158 7.04206C19.6528 5.91853 21.8451 6.78596 22.6515 7.45128L22.6689 7.4657L23.1444 7.93651L26.5101 6.98443L25.0619 9.13511L27.2833 8.76855L24.4933 11.9913C24.4091 13.9773 23.852 16.9118 22.4306 19.5199C20.9595 22.2192 18.5376 24.6058 14.7392 25.163C11.1007 25.6967 8.66222 25.5387 7.0806 25.0917C5.52927 24.6532 4.68395 23.8935 4.51205 23.1276L4.37524 22.5181H4.99991C5.36646 22.5181 5.99253 22.4866 6.6535 22.3913C7.3233 22.2946 7.98299 22.1386 8.44475 21.91C8.91402 21.6777 9.24862 21.4438 9.47697 21.251C9.05346 21.0757 8.5771 20.8491 8.13466 20.5841C7.77768 20.3703 7.42804 20.1228 7.14387 19.8462C6.86436 19.5741 6.6137 19.2406 6.51512 18.8502C6.44704 18.5806 6.40292 18.3781 6.37843 18.2295C6.36627 18.1556 6.3574 18.0859 6.35411 18.0229C6.35164 17.9758 6.34784 17.8732 6.38222 17.7663C6.38853 17.7466 6.39853 17.7191 6.41434 17.6876Z" fill="white"/>
</svg>
